<svg width="24" height="24" viewBox="0 0 24 24" fill="none" xmlns="http://www.w3.org/2000/svg">
<g clip-path="url(#clip0_233_2221)">
<path d="M21.7527 2.88598C18.7616 -0.105303 13.8943 -0.105303 10.9027 2.88598L1.6023 12.1863C-0.534217 14.3231 -0.534077 17.7997 1.60258 19.9363C2.671 21.0048 4.07397 21.5389 5.4775 21.5388C6.88066 21.5387 8.28438 21.0046 9.35262 19.9363L17.8777 11.411C18.4988 10.79 18.8409 9.96433 18.841 9.08608C18.841 8.20779 18.499 7.38213 17.8778 6.76094C16.5957 5.47896 14.5096 5.47901 13.2277 6.76118L7.65265 12.3361C7.22463 12.7641 7.22463 13.4581 7.65255 13.8861C8.08052 14.3142 8.77451 14.3141 9.20257 13.8861L14.7777 8.31115C15.2051 7.88379 15.9003 7.88369 16.3277 8.31105C16.5347 8.51805 16.6488 8.7933 16.6488 9.08604C16.6488 9.37877 16.5348 9.65393 16.3277 9.86102L7.8026 18.3863C6.52052 19.6682 4.43458 19.6684 3.1526 18.3864C1.87061 17.1043 1.87052 15.0183 3.15236 13.7362L12.4527 4.43599C14.5895 2.29924 18.0662 2.29924 20.2027 4.43599C21.2379 5.47099 21.808 6.84719 21.808 8.31096C21.808 9.77472 21.2378 11.1509 20.2027 12.186L10.9025 21.4865C10.4746 21.9145 10.4746 22.6084 10.9026 23.0365C11.1167 23.2506 11.3972 23.3575 11.6776 23.3575C11.9581 23.3575 12.2386 23.2504 12.4527 23.0365L21.7527 13.7361C23.2019 12.287 23.9999 10.3604 24 8.31101C24 6.26168 23.2019 4.33502 21.7527 2.88598Z" fill="url(#paint0_linear_233_2221)"/>
</g>
<defs>
<linearGradient id="paint0_linear_233_2221" x1="12" y1="0.642517" x2="12" y2="23.3575" gradientUnits="userSpaceOnUse">
<stop stop-color="#BE1823"/>
<stop offset="1" stop-color="#FF4E59"/>
</linearGradient>
<clipPath id="clip0_233_2221">
<rect width="24" height="24" fill="white"/>
</clipPath>
</defs>
</svg>
