<svg width="40" height="40" viewBox="0 0 40 40" fill="none" xmlns="http://www.w3.org/2000/svg">
<circle cx="20" cy="20" r="20" fill="url(#paint0_linear_285_3303)"/>
<path d="M13.625 32H26.375C26.9717 32 27.544 31.7629 27.966 31.341C28.3879 30.919 28.625 30.3467 28.625 29.75V11.75C28.625 11.1533 28.3879 10.581 27.966 10.159C27.544 9.73705 26.9717 9.5 26.375 9.5H24.7438C24.5888 9.06174 24.3019 8.68222 23.9225 8.41362C23.5431 8.14503 23.0898 8.00053 22.625 8H17.375C16.9102 8.00053 16.4569 8.14503 16.0775 8.41362C15.6981 8.68222 15.4112 9.06174 15.2563 9.5H13.625C13.0283 9.5 12.456 9.73705 12.034 10.159C11.6121 10.581 11.375 11.1533 11.375 11.75V29.75C11.375 30.3467 11.6121 30.919 12.034 31.341C12.456 31.7629 13.0283 32 13.625 32ZM17.375 9.5H22.625C22.8239 9.5 23.0147 9.57902 23.1553 9.71967C23.296 9.86032 23.375 10.0511 23.375 10.25C23.375 10.4489 23.296 10.6397 23.1553 10.7803C23.0147 10.921 22.8239 11 22.625 11H17.375C17.1761 11 16.9853 10.921 16.8447 10.7803C16.704 10.6397 16.625 10.4489 16.625 10.25C16.625 10.0511 16.704 9.86032 16.8447 9.71967C16.9853 9.57902 17.1761 9.5 17.375 9.5ZM12.875 11.75C12.875 11.5511 12.954 11.3603 13.0947 11.2197C13.2353 11.079 13.4261 11 13.625 11H15.2563C15.4112 11.4383 15.6981 11.8178 16.0775 12.0864C16.4569 12.355 16.9102 12.4995 17.375 12.5H22.625C23.0898 12.4995 23.5431 12.355 23.9225 12.0864C24.3019 11.8178 24.5888 11.4383 24.7438 11H26.375C26.5739 11 26.7647 11.079 26.9053 11.2197C27.046 11.3603 27.125 11.5511 27.125 11.75V29.75C27.125 29.9489 27.046 30.1397 26.9053 30.2803C26.7647 30.421 26.5739 30.5 26.375 30.5H13.625C13.4261 30.5 13.2353 30.421 13.0947 30.2803C12.954 30.1397 12.875 29.9489 12.875 29.75V11.75Z" fill="white"/>
<path d="M18.1258 25.0138C18.1978 25.0904 18.285 25.151 18.3819 25.1917C18.4788 25.2324 18.5832 25.2522 18.6883 25.25H18.7258C18.8349 25.2443 18.9414 25.2148 19.0379 25.1637C19.1344 25.1125 19.2186 25.0409 19.2845 24.9538L25.2845 17.0788C25.3946 16.92 25.4392 16.7249 25.409 16.5341C25.3788 16.3433 25.2761 16.1715 25.1224 16.0545C24.9687 15.9375 24.7758 15.8844 24.5838 15.9061C24.3919 15.9279 24.2157 16.0228 24.092 16.1712L18.6283 23.3413L16.4233 20.9863C16.287 20.8411 16.0987 20.7559 15.8997 20.7496C15.7006 20.7433 15.5073 20.8163 15.362 20.9525C15.2168 21.0888 15.1317 21.2771 15.1254 21.4761C15.1191 21.6752 15.192 21.8686 15.3283 22.0138L18.1258 25.0138Z" fill="white"/>
<defs>
<linearGradient id="paint0_linear_285_3303" x1="0" y1="20" x2="40" y2="20" gradientUnits="userSpaceOnUse">
<stop stop-color="#EC008C"/>
<stop offset="1" stop-color="#FC6767"/>
</linearGradient>
</defs>
</svg>
