<svg width="24" height="24" viewBox="0 0 24 24" fill="none" xmlns="http://www.w3.org/2000/svg">
<path d="M12.6942 15.0319C12.4675 15.1736 12.2125 15.2302 11.9858 15.2302C11.7591 15.2302 11.5041 15.1736 11.2774 15.0319L0 8.14639V17.2987C0 19.2538 1.58678 20.8406 3.54191 20.8406H20.4581C22.4132 20.8406 24 19.2538 24 17.2987V8.14639L12.6942 15.0319Z" fill="url(#paint0_linear_153_1224)"/>
<path d="M20.458 3.15939H3.54185C1.87007 3.15939 0.453305 4.34948 0.113281 5.93625L12.0141 13.1901L23.8866 5.93625C23.5466 4.34948 22.1298 3.15939 20.458 3.15939Z" fill="url(#paint1_linear_153_1224)"/>
<defs>
<linearGradient id="paint0_linear_153_1224" x1="22.1" y1="21.5705" x2="8.28225" y2="-8.41963" gradientUnits="userSpaceOnUse">
<stop offset="0.192708" stop-color="#3C3664"/>
<stop offset="0.888542" stop-color="#046AC9"/>
</linearGradient>
<linearGradient id="paint1_linear_153_1224" x1="22.0045" y1="13.7669" x2="12.7024" y2="-11.5424" gradientUnits="userSpaceOnUse">
<stop offset="0.192708" stop-color="#3C3664"/>
<stop offset="0.888542" stop-color="#046AC9"/>
</linearGradient>
</defs>
</svg>
