<svg width="24" height="24" viewBox="0 0 24 24" fill="none" xmlns="http://www.w3.org/2000/svg">
<path d="M12 0C5.36705 0 0 5.36752 0 12C0 18.633 5.36752 24 12 24C18.633 24 24 18.6325 24 12C24 5.36705 18.6325 0 12 0ZM12 22.125C6.40345 22.125 1.875 17.5962 1.875 12C1.875 6.40345 6.40383 1.875 12 1.875C17.5965 1.875 22.125 6.40383 22.125 12C22.125 17.5965 17.5962 22.125 12 22.125Z" fill="url(#paint0_linear_223_3429)"/>
<path d="M12 6.04111C11.4822 6.04111 11.0625 6.46083 11.0625 6.97861V13.0158C11.0625 13.5336 11.4822 13.9533 12 13.9533C12.5178 13.9533 12.9375 13.5336 12.9375 13.0158V6.97861C12.9375 6.46083 12.5178 6.04111 12 6.04111Z" fill="url(#paint1_linear_223_3429)"/>
<path d="M12 17.6325C12.699 17.6325 13.2656 17.0659 13.2656 16.3669C13.2656 15.6679 12.699 15.1013 12 15.1013C11.301 15.1013 10.7344 15.6679 10.7344 16.3669C10.7344 17.0659 11.301 17.6325 12 17.6325Z" fill="url(#paint2_linear_223_3429)"/>
<defs>
<linearGradient id="paint0_linear_223_3429" x1="12" y1="0" x2="12" y2="24" gradientUnits="userSpaceOnUse">
<stop stop-color="#BE1823"/>
<stop offset="1" stop-color="#FF4E59"/>
</linearGradient>
<linearGradient id="paint1_linear_223_3429" x1="12" y1="6.04111" x2="12" y2="13.9533" gradientUnits="userSpaceOnUse">
<stop stop-color="#BE1823"/>
<stop offset="1" stop-color="#FF4E59"/>
</linearGradient>
<linearGradient id="paint2_linear_223_3429" x1="12" y1="15.1013" x2="12" y2="17.6325" gradientUnits="userSpaceOnUse">
<stop stop-color="#BE1823"/>
<stop offset="1" stop-color="#FF4E59"/>
</linearGradient>
</defs>
</svg>
