<svg width="24" height="24" viewBox="0 0 24 24" fill="none" xmlns="http://www.w3.org/2000/svg">
<g clip-path="url(#clip0_153_1178)">
<path d="M16.0009 5.76594e-06C15.993 -5.03e-05 15.985 5.76594e-06 15.977 0.000173964C15.4317 -0.00918905 14.9821 0.425322 14.9728 0.970619C14.9726 0.980879 14.9726 0.991139 14.9727 1.0014V3.30806H16.9911V1.0014C16.9942 0.451449 16.5509 0.00314546 16.0009 5.76594e-06Z" fill="url(#paint0_linear_153_1178)"/>
<path d="M18.3546 2.46707H17.8885V3.76904C17.8932 4.00513 17.7057 4.20041 17.4695 4.20512C17.4638 4.20523 17.4581 4.20523 17.4524 4.20512H14.5021C14.2704 4.20893 14.0796 4.0243 14.0757 3.79264C14.0756 3.78479 14.0757 3.77689 14.076 3.76904V2.46707H6.45104V3.76904C6.44341 4.0169 6.2367 4.21196 5.98877 4.20512H3.03858C2.79307 4.21145 2.58893 4.01763 2.58254 3.77212C2.58254 3.77111 2.58248 3.77005 2.58248 3.76904V2.46707H2.16451C1.15577 2.47217 0.340517 3.29102 0.339844 4.29976V6.22349H20.1872V4.29976C20.1828 3.28945 19.3649 2.4715 18.3546 2.46707Z" fill="url(#paint1_linear_153_1178)"/>
<path d="M4.51075 0.000167847C3.94466 0.000167847 3.47656 0.435408 3.47656 1.00139V3.30806H5.551V1.00139C5.551 0.435408 5.0768 0.000167847 4.51075 0.000167847Z" fill="url(#paint2_linear_153_1178)"/>
<path d="M0.339844 7.12056V19.3941C0.339844 20.4 1.15841 21.2492 2.16451 21.2492H10.4752C9.76841 20.0629 9.39411 18.7082 9.39164 17.3273C9.39164 13.1447 12.7964 9.72662 16.9789 9.72662C18.0871 9.72931 19.1816 9.97191 20.1872 10.4377V7.12056H0.339844Z" fill="url(#paint3_linear_153_1178)"/>
<path d="M16.9732 10.6237C13.2794 10.6237 10.2851 13.6181 10.2852 17.3119C10.2852 21.0057 13.2796 24 16.9734 24C20.6672 23.9999 23.6615 21.0056 23.6615 17.3118C23.6573 13.6197 20.6653 10.6278 16.9732 10.6237ZM19.6145 18.3337H16.6081C16.3562 18.3292 16.1532 18.1259 16.149 17.874V13.9404C16.149 13.6927 16.3499 13.4919 16.5976 13.4919C16.8453 13.4919 17.0461 13.6927 17.0461 13.9404V17.4367H19.6145C19.8622 17.4367 20.063 17.6375 20.063 17.8852C20.063 18.1329 19.8622 18.3337 19.6145 18.3337Z" fill="url(#paint4_linear_153_1178)"/>
</g>
<defs>
<linearGradient id="paint0_linear_153_1178" x1="16.8313" y1="3.49828" x2="12.3793" y2="0.379792" gradientUnits="userSpaceOnUse">
<stop offset="0.192708" stop-color="#3C3664"/>
<stop offset="0.888542" stop-color="#046AC9"/>
</linearGradient>
<linearGradient id="paint1_linear_153_1178" x1="18.616" y1="6.43949" x2="16.8892" y2="-4.03431" gradientUnits="userSpaceOnUse">
<stop offset="0.192708" stop-color="#3C3664"/>
<stop offset="0.888542" stop-color="#046AC9"/>
</linearGradient>
<linearGradient id="paint2_linear_153_1178" x1="5.38677" y1="3.49826" x2="0.894569" y2="0.264218" gradientUnits="userSpaceOnUse">
<stop offset="0.192708" stop-color="#3C3664"/>
<stop offset="0.888542" stop-color="#046AC9"/>
</linearGradient>
<linearGradient id="paint3_linear_153_1178" x1="18.616" y1="22.0616" x2="0.492651" y2="-7.16494" gradientUnits="userSpaceOnUse">
<stop offset="0.192708" stop-color="#3C3664"/>
<stop offset="0.888542" stop-color="#046AC9"/>
</linearGradient>
<linearGradient id="paint4_linear_153_1178" x1="22.6025" y1="24.7691" x2="3.62843" y2="2.98712" gradientUnits="userSpaceOnUse">
<stop offset="0.192708" stop-color="#3C3664"/>
<stop offset="0.888542" stop-color="#046AC9"/>
</linearGradient>
<clipPath id="clip0_153_1178">
<rect width="24" height="24" fill="white"/>
</clipPath>
</defs>
</svg>
