<svg width="55" height="55" viewBox="0 0 55 55" fill="none" xmlns="http://www.w3.org/2000/svg">
<path d="M33.8495 15.9077C33.8493 14.6519 33.4768 13.4244 32.779 12.3804C32.0812 11.3363 31.0895 10.5226 29.9293 10.0422C28.769 9.56172 27.4924 9.4361 26.2608 9.68119C25.0291 9.92629 23.8978 10.5311 23.0099 11.4191C22.122 12.3071 21.5174 13.4385 21.2725 14.6702C21.0275 15.9018 21.1533 17.1784 21.6339 18.3386C22.1145 19.4988 22.9284 20.4904 23.9725 21.188C25.0167 21.8857 26.2442 22.2581 27.5 22.2581C29.1835 22.256 30.7975 21.5863 31.9878 20.3958C33.1782 19.2053 33.8477 17.5912 33.8495 15.9077ZM22.6544 15.9077C22.6546 14.9494 22.9389 14.0126 23.4715 13.2159C24.004 12.4191 24.7608 11.7982 25.6463 11.4316C26.5317 11.065 27.506 10.9691 28.4459 11.1562C29.3857 11.3433 30.2491 11.8048 30.9267 12.4825C31.6042 13.1602 32.0656 14.0236 32.2525 14.9636C32.4394 15.9035 32.3434 16.8777 31.9767 17.7631C31.6099 18.6485 30.9888 19.4052 30.192 19.9376C29.3951 20.47 28.4583 20.7542 27.5 20.7542C26.2152 20.7527 24.9834 20.2416 24.075 19.333C23.1666 18.4244 22.6557 17.1925 22.6544 15.9077Z" fill="url(#paint0_linear_209_986)"/>
<path d="M52.9925 52.0222L46.8626 35.9518C46.8082 35.8096 46.712 35.6871 46.5865 35.6007C46.4611 35.5143 46.3124 35.4681 46.1601 35.468H34.5585C34.6294 35.3524 34.6999 35.2403 34.7708 35.1243C39.2348 27.7336 41.4812 21.2686 41.449 15.9112C41.4496 12.2116 39.9805 8.66328 37.365 6.04682C34.7494 3.43036 31.2016 1.9601 27.502 1.95947C23.8023 1.95885 20.254 3.42791 17.6376 6.04348C15.0211 8.65905 13.5508 12.2069 13.5502 15.9065C13.518 21.2686 15.7644 27.7345 20.2284 35.1243C20.2993 35.2416 20.3698 35.3537 20.4407 35.468H8.83912C8.68681 35.4681 8.5381 35.5143 8.41266 35.6007C8.28722 35.6871 8.19095 35.8096 8.13658 35.9518L2.00752 52.0222C1.96385 52.136 1.94856 52.2588 1.96296 52.3799C1.97737 52.501 2.02105 52.6167 2.09021 52.7172C2.15938 52.8176 2.25196 52.8997 2.35996 52.9563C2.46795 53.0129 2.58811 53.0424 2.71006 53.0422H52.29C52.4119 53.0424 52.5321 53.0129 52.6401 52.9563C52.7481 52.8997 52.8407 52.8176 52.9098 52.7172C52.979 52.6167 53.0227 52.501 53.0371 52.3799C53.0515 52.2588 53.0362 52.136 52.9925 52.0222ZM15.0546 15.9078C15.0548 14.2734 15.377 12.6551 16.0027 11.1453C16.6284 9.63542 17.5454 8.2636 18.7013 7.10813C19.8571 5.95266 21.2293 5.03617 22.7393 4.41099C24.2494 3.7858 25.8678 3.46417 27.5022 3.46445C29.1365 3.46474 30.7548 3.78693 32.2647 4.41263C33.7745 5.03833 35.1463 5.9553 36.3018 7.11117C37.4573 8.26703 38.3738 9.63917 38.999 11.1492C39.6241 12.6593 39.9458 14.2777 39.9455 15.9121C40.0099 26.5932 30.024 39.767 27.5 42.9261C24.976 39.7683 14.9897 26.598 15.0546 15.9078ZM26.9272 44.6019C26.9978 44.6849 27.0856 44.7515 27.1845 44.7972C27.2834 44.843 27.3911 44.8666 27.5 44.8666C27.609 44.8666 27.7166 44.843 27.8155 44.7972C27.9144 44.7515 28.0022 44.6849 28.0728 44.6019C30.0693 42.1698 31.9202 39.6217 33.6158 36.9711H45.6414L46.6039 39.4955L23.1039 47.8533L14.7276 36.9698H21.3834C23.0792 39.6209 24.9304 42.1694 26.9272 44.6019ZM23.0777 49.4573H23.082L37.1014 44.473L42.5391 51.5383H17.2305L23.0777 49.4573ZM9.35775 36.9698H12.8296L21.6133 48.3831L12.7433 51.5379H3.80147L9.35775 36.9698ZM44.4387 51.5383L38.5911 43.9406L47.1419 40.8997L51.1994 51.5383H44.4387Z" fill="url(#paint1_linear_209_986)"/>
<defs>
<linearGradient id="paint0_linear_209_986" x1="27.5" y1="8.73313" x2="27.5" y2="27.317" gradientUnits="userSpaceOnUse">
<stop stop-color="#FFE600"/>
<stop offset="1" stop-color="#F23E17"/>
</linearGradient>
<linearGradient id="paint1_linear_209_986" x1="27.5" y1="-1.36298" x2="27.5" y2="73.3923" gradientUnits="userSpaceOnUse">
<stop stop-color="#FFE600"/>
<stop offset="1" stop-color="#F23E17"/>
</linearGradient>
</defs>
</svg>
