<svg width="55" height="55" viewBox="0 0 55 55" fill="none" xmlns="http://www.w3.org/2000/svg">
<g clip-path="url(#clip0_209_992)">
<path d="M5.5 55H27.5C28.9582 54.9985 30.3563 54.4186 31.3875 53.3875C32.4186 52.3563 32.9985 50.9582 33 49.5C33 49.2569 32.9034 49.0237 32.7315 48.8518C32.5596 48.6799 32.3265 48.5833 32.0833 48.5833C31.8402 48.5833 31.6071 48.6799 31.4352 48.8518C31.2632 49.0237 31.1667 49.2569 31.1667 49.5C31.1667 50.4725 30.7804 51.4051 30.0927 52.0927C29.4051 52.7804 28.4725 53.1667 27.5 53.1667H5.5C4.52754 53.1667 3.59491 52.7804 2.90728 52.0927C2.21964 51.4051 1.83333 50.4725 1.83333 49.5V5.5C1.83333 4.52754 2.21964 3.59491 2.90728 2.90728C3.59491 2.21964 4.52754 1.83333 5.5 1.83333H5.85017L7.84025 5.8135C8.06723 6.27134 8.41796 6.65641 8.85267 6.92504C9.28737 7.19367 9.78866 7.33512 10.2997 7.33333H22.7003C23.2113 7.33512 23.7126 7.19367 24.1473 6.92504C24.582 6.65641 24.9328 6.27134 25.1598 5.8135L27.1498 1.83333H27.5C28.4725 1.83333 29.4051 2.21964 30.0927 2.90728C30.7804 3.59491 31.1667 4.52754 31.1667 5.5V7.33333C31.1667 7.57645 31.2632 7.80961 31.4352 7.98151C31.6071 8.15342 31.8402 8.25 32.0833 8.25C32.3265 8.25 32.5596 8.15342 32.7315 7.98151C32.9034 7.80961 33 7.57645 33 7.33333V5.5C32.9985 4.04176 32.4186 2.64366 31.3875 1.61252C30.3563 0.581386 28.9582 0.00145606 27.5 0L5.5 0C4.04176 0.00145606 2.64366 0.581386 1.61252 1.61252C0.581386 2.64366 0.00145606 4.04176 0 5.5L0 49.5C0.00145606 50.9582 0.581386 52.3563 1.61252 53.3875C2.64366 54.4186 4.04176 54.9985 5.5 55ZM23.5198 4.99308C23.4443 5.14573 23.3274 5.27414 23.1826 5.36374C23.0377 5.45334 22.8707 5.50055 22.7003 5.5H10.2997C10.1293 5.50055 9.96228 5.45334 9.81742 5.36374C9.67257 5.27414 9.55573 5.14573 9.48017 4.99308L7.89983 1.83333H25.1002L23.5198 4.99308Z" fill="url(#paint0_linear_209_992)"/>
<path d="M23.8333 51.3333C24.0764 51.3333 24.3096 51.2367 24.4815 51.0648C24.6534 50.8929 24.75 50.6598 24.75 50.4167C24.75 50.1735 24.6534 49.9404 24.4815 49.7685C24.3096 49.5966 24.0764 49.5 23.8333 49.5H9.16667C8.92355 49.5 8.69039 49.5966 8.51849 49.7685C8.34658 49.9404 8.25 50.1735 8.25 50.4167C8.25 50.6598 8.34658 50.8929 8.51849 51.0648C8.69039 51.2367 8.92355 51.3333 9.16667 51.3333H23.8333Z" fill="url(#paint1_linear_209_992)"/>
<path d="M45.8003 30.5142C45.1011 29.8463 44.1713 29.4735 43.2043 29.4735C42.2374 29.4735 41.3076 29.8463 40.6083 30.5142L38.7915 32.331C38.7545 32.3711 38.7048 32.3971 38.6508 32.4046C38.5968 32.4121 38.5419 32.4007 38.4954 32.3723C36.2596 30.775 34.3033 28.8191 32.7058 26.5835C32.6791 26.5382 32.6685 26.4851 32.6759 26.433C32.6832 26.3809 32.7079 26.3328 32.7461 26.2966L34.5675 24.4752C35.2547 23.786 35.6405 22.8524 35.6405 21.8792C35.6405 20.9059 35.2547 19.9724 34.5675 19.2832L31.9422 16.656C31.2431 15.9889 30.3139 15.6167 29.3475 15.6167C28.3812 15.6167 27.452 15.9889 26.7529 16.656C24.2412 19.1677 23.2696 23.0947 24.1478 27.1647C24.7399 29.889 26.2258 32.3814 28.8374 35.0224C29.6624 35.8171 29.5029 35.6732 30.0703 36.2553C32.6966 38.8531 35.1899 40.339 37.9179 40.9303C41.6763 41.736 45.7279 41.0219 48.4229 38.3242C48.7644 37.9836 49.0353 37.579 49.2201 37.1335C49.405 36.688 49.5001 36.2105 49.5001 35.7282C49.5001 35.2459 49.405 34.7683 49.2201 34.3229C49.0353 33.8774 48.7644 33.4728 48.4229 33.1322L45.8003 30.5142ZM47.1286 37.0335C46.2939 37.8368 45.3047 38.4622 44.2211 38.8719C43.1375 39.2816 41.982 39.467 40.8247 39.4169C36.9747 39.4169 34.089 37.6541 31.372 34.9674C30.437 34.0021 30.4792 34.0672 30.1272 33.7234C28.0871 31.8642 26.6327 29.4511 25.9417 26.7788C25.1937 23.322 25.982 20.0239 28.05 17.9549C28.2204 17.7838 28.4228 17.648 28.6458 17.5553C28.8688 17.4627 29.1079 17.415 29.3494 17.415C29.5909 17.415 29.8299 17.4627 30.0529 17.5553C30.2759 17.648 30.4784 17.7838 30.6488 17.9549L33.275 20.5775C33.4463 20.7479 33.5822 20.9504 33.675 21.1735C33.7677 21.3966 33.8155 21.6358 33.8155 21.8774C33.8155 22.1189 33.7677 22.3581 33.675 22.5812C33.5822 22.8043 33.4463 23.0068 33.275 23.1772L31.4417 25.0032C31.0939 25.3471 30.8803 25.8039 30.8395 26.2912C30.7987 26.7786 30.9332 27.2646 31.2189 27.6615C32.9303 30.0537 35.0239 32.1479 37.4156 33.86C37.8134 34.147 38.3007 34.2822 38.7895 34.241C39.2783 34.1998 39.7362 33.985 40.0803 33.6354L41.9045 31.8085C42.2494 31.4642 42.7169 31.2707 43.2043 31.2707C43.6917 31.2707 44.1592 31.4642 44.5042 31.8085L47.1268 34.4311C47.2986 34.6014 47.435 34.804 47.5281 35.0273C47.6213 35.2505 47.6693 35.49 47.6695 35.7319C47.6697 35.9738 47.622 36.2134 47.5291 36.4368C47.4363 36.6602 47.3002 36.863 47.1286 37.0335Z" fill="url(#paint2_linear_209_992)"/>
<path d="M49.5 10.0835H23.8333C22.375 10.085 20.9769 10.6649 19.9458 11.696C18.9147 12.7272 18.3347 14.1253 18.3333 15.5835V21.4502L8.29762 26.8026C8.00567 26.9594 7.76167 27.1924 7.59158 27.4768C7.42149 27.7612 7.33167 28.0864 7.33167 28.4177C7.33167 28.7491 7.42149 29.0743 7.59158 29.3587C7.76167 29.6431 8.00567 29.8761 8.29762 30.0329L18.3333 35.3835V41.2502C18.3347 42.7084 18.9147 44.1065 19.9458 45.1376C20.9769 46.1688 22.375 46.7487 23.8333 46.7502H49.5C50.9582 46.7487 52.3563 46.1688 53.3874 45.1376C54.4186 44.1065 54.9985 42.7084 55 41.2502V15.5835C54.9985 14.1253 54.4186 12.7272 53.3874 11.696C52.3563 10.6649 50.9582 10.085 49.5 10.0835ZM53.1666 41.2502C53.1666 42.2226 52.7803 43.1553 52.0927 43.8429C51.405 44.5305 50.4724 44.9168 49.5 44.9168H23.8333C22.8608 44.9168 21.9282 44.5305 21.2406 43.8429C20.5529 43.1553 20.1666 42.2226 20.1666 41.2502V34.8335C20.1666 34.6675 20.1215 34.5045 20.0361 34.3621C19.9507 34.2197 19.8282 34.1032 19.6817 34.025L9.16662 28.4168L19.6845 22.8068C19.8301 22.7284 19.9519 22.612 20.0368 22.47C20.1217 22.328 20.1665 22.1656 20.1666 22.0002V15.5835C20.1666 14.611 20.5529 13.6784 21.2406 12.9908C21.9282 12.3031 22.8608 11.9168 23.8333 11.9168H49.5C50.4724 11.9168 51.405 12.3031 52.0927 12.9908C52.7803 13.6784 53.1666 14.611 53.1666 15.5835V41.2502Z" fill="url(#paint3_linear_209_992)"/>
</g>
<defs>
<linearGradient id="paint0_linear_209_992" x1="16.5" y1="-3.57724" x2="16.5" y2="76.9106" gradientUnits="userSpaceOnUse">
<stop stop-color="#FFE600"/>
<stop offset="1" stop-color="#F23E17"/>
</linearGradient>
<linearGradient id="paint1_linear_209_992" x1="16.5" y1="49.3808" x2="16.5" y2="52.0637" gradientUnits="userSpaceOnUse">
<stop stop-color="#FFE600"/>
<stop offset="1" stop-color="#F23E17"/>
</linearGradient>
<linearGradient id="paint2_linear_209_992" x1="36.6655" y1="13.95" x2="36.6655" y2="51.4511" gradientUnits="userSpaceOnUse">
<stop stop-color="#FFE600"/>
<stop offset="1" stop-color="#F23E17"/>
</linearGradient>
<linearGradient id="paint3_linear_209_992" x1="31.1658" y1="7.69867" x2="31.1658" y2="61.3572" gradientUnits="userSpaceOnUse">
<stop stop-color="#FFE600"/>
<stop offset="1" stop-color="#F23E17"/>
</linearGradient>
<clipPath id="clip0_209_992">
<rect width="55" height="55" fill="white"/>
</clipPath>
</defs>
</svg>
