<svg width="55" height="55" viewBox="0 0 55 55" fill="none" xmlns="http://www.w3.org/2000/svg">
<path d="M1.61974 53.8274H53.2412C53.5217 53.8274 53.7907 53.7159 53.9891 53.5176C54.1874 53.3192 54.2989 53.0502 54.2989 52.7697V23.0394C54.2936 22.863 54.2497 22.6899 54.1703 22.5322C54.091 22.3745 53.9781 22.2362 53.8395 22.1268L51.0351 19.7092V5.87461C51.0304 5.59725 50.9168 5.33285 50.719 5.1384C50.5211 4.94395 50.2548 4.83501 49.9774 4.83505H33.5379L30.0445 1.81307C29.3084 1.20904 28.3857 0.878906 27.4335 0.878906C26.4813 0.878906 25.5586 1.20904 24.8225 1.81307L21.323 4.83505H4.88347C4.60607 4.83501 4.33975 4.94395 4.14191 5.1384C3.94407 5.33285 3.83053 5.59725 3.82578 5.87461V19.7394L1.0516 22.1026C0.898296 22.2055 0.773182 22.3451 0.68767 22.5088C0.602159 22.6724 0.55897 22.8548 0.562043 23.0394V52.7697C0.562043 53.0502 0.673478 53.3192 0.871834 53.5176C1.07019 53.7159 1.33922 53.8274 1.61974 53.8274ZM17.3642 37.829L2.69556 50.4004V25.3241L17.3642 37.829ZM52.1593 25.2938V50.473L37.4725 37.835L52.1593 25.2938ZM35.4659 38.9109L50.3582 51.712H4.42413L19.3406 38.9109H35.4659ZM51.5972 22.9669L51.0351 23.4444V22.5197L51.5972 22.9669ZM26.1945 3.44494C26.5496 3.17146 26.9852 3.02317 27.4335 3.02317C27.8817 3.02317 28.3173 3.17146 28.6725 3.44494L30.2802 4.83505H24.5868L26.1945 3.44494ZM5.94116 6.9323H48.9197V25.2515L35.4175 36.7955H19.4071L5.9049 25.2757C5.92921 25.1892 5.94142 25.0997 5.94116 25.0098V6.9323ZM3.82578 23.5048L3.22138 23.0092L3.82578 22.5136V23.5048Z" fill="url(#paint0_linear_209_980)"/>
<path d="M24.3874 30.389C27.0592 31.1235 29.9079 30.8481 32.3896 29.6154C32.6396 29.4879 32.8288 29.2664 32.9155 28.9995C33.0022 28.7325 32.9794 28.4421 32.8519 28.192C32.7245 27.942 32.5029 27.7528 32.236 27.6661C31.9691 27.5793 31.6786 27.6022 31.4286 27.7297C29.4469 28.7063 27.1824 28.9463 25.0401 28.4066C19.2439 26.1885 20.8093 20.0176 20.8577 19.7577C21.3231 18.0049 23.6137 13.5566 28.6544 13.9374C34.3176 14.3786 34.2994 19.6066 34.239 20.6522C34.1121 22.828 32.861 24.478 31.8577 24.478H31.8214C31.74 24.4831 31.6585 24.4706 31.5824 24.4414C31.5063 24.4122 31.4373 24.367 31.3802 24.3088C31.1402 23.8961 31.0385 23.4175 31.0901 22.9428L31.8033 17.2857C31.8033 17.2374 31.8033 17.195 31.8033 17.1527C31.806 16.8908 31.7115 16.6372 31.538 16.441C31.3645 16.2448 31.1244 16.1199 30.8641 16.0906C30.6038 16.0612 30.3419 16.1295 30.1291 16.2822C29.9163 16.4349 29.7677 16.6611 29.7121 16.917C29.0918 16.4161 28.3268 16.1279 27.5302 16.095H27.4396C25.2879 16.095 22.8038 17.8055 22.3505 21.039C22.1249 22.1811 22.3536 23.3662 22.9878 24.3424C23.6221 25.3186 24.612 26.0091 25.7472 26.267C26.4053 26.378 27.0793 26.3499 27.7257 26.1843C28.3722 26.0188 28.9768 25.7196 29.5005 25.306C29.5844 25.4407 29.6794 25.5681 29.7846 25.6868C30.0279 25.9668 30.3275 26.1923 30.6639 26.3485C31.0003 26.5047 31.3659 26.5882 31.7368 26.5934C34.0758 26.7022 36.161 24.0731 36.3544 20.7731C36.5901 16.6269 34.3538 12.2571 28.8115 11.828C23.0335 11.3808 19.661 16.0044 18.8148 19.2198C17.0983 25.7231 21.4742 29.289 24.3874 30.389ZM29.0049 22.5319C28.7877 23.0845 28.3901 23.5476 27.8767 23.846C27.3633 24.1443 26.7641 24.2606 26.1764 24.1758C25.5696 24.0228 25.0475 23.6371 24.7229 23.1021C24.3983 22.5671 24.2973 21.9259 24.4417 21.317C24.7681 19.0264 26.4302 18.1923 27.4637 18.1923H27.506C28.4428 18.1923 29.1379 19.3104 29.156 19.3346C29.2182 19.4436 29.3002 19.5399 29.3978 19.6187L29.0049 22.5319Z" fill="url(#paint1_linear_209_980)"/>
<defs>
<linearGradient id="paint0_linear_209_980" x1="27.4304" y1="-2.5649" x2="27.4304" y2="74.9206" gradientUnits="userSpaceOnUse">
<stop stop-color="#FFE600"/>
<stop offset="1" stop-color="#F23E17"/>
</linearGradient>
<linearGradient id="paint1_linear_209_980" x1="27.3994" y1="10.5624" x2="27.3994" y2="38.359" gradientUnits="userSpaceOnUse">
<stop stop-color="#FFE600"/>
<stop offset="1" stop-color="#F23E17"/>
</linearGradient>
</defs>
</svg>
