<svg width="40" height="40" viewBox="0 0 40 40" fill="none" xmlns="http://www.w3.org/2000/svg">
<circle cx="20" cy="20" r="20" fill="url(#paint0_linear_233_2233)"/>
<path d="M31.5724 16.7078L20.3654 10.8902C20.1363 10.7713 19.8638 10.7713 19.6346 10.8902L8.42766 16.7078C8.16495 16.8442 8.00006 17.1155 8 17.4115C8 17.4115 8 17.4115 8 17.4116V20.4482C8 20.886 8.35502 21.2412 8.79302 21.2412C9.23102 21.2412 9.58604 20.886 9.58604 20.4482V18.7167L11.2858 19.5991V25.9142C11.2858 26.0796 11.3375 26.2409 11.4338 26.3755C11.5163 26.4908 13.5274 29.1989 20 29.1989C26.4727 29.1989 28.4836 26.4908 28.5661 26.3755C28.6623 26.241 28.7139 26.0796 28.7139 25.9142V19.5991L31.5724 18.1154C31.8351 17.979 32 17.7076 32 17.4115C32 17.1155 31.8351 16.8442 31.5724 16.7078ZM27.1279 25.6081C26.6013 26.1143 24.6487 27.613 20 27.613C15.3514 27.613 13.3987 26.1143 12.872 25.6081V20.4225L19.6347 23.9331C19.7492 23.9926 19.8746 24.0223 20 24.0223C20.1255 24.0223 20.2509 23.9925 20.3654 23.9331L27.1279 20.4226V25.6081ZM20 22.3357L10.5143 17.4117L20 12.4875L29.4857 17.4117L20 22.3357Z" fill="white"/>
<path d="M8.79302 21.9404C8.35502 21.9404 8 22.2955 8 22.7334V23.6925C8 24.1304 8.35502 24.4855 8.79302 24.4855C9.23102 24.4855 9.58604 24.1304 9.58604 23.6925V22.7334C9.58604 22.2955 9.23102 21.9404 8.79302 21.9404Z" fill="white"/>
<defs>
<linearGradient id="paint0_linear_233_2233" x1="20" y1="-2.60163" x2="20" y2="55.935" gradientUnits="userSpaceOnUse">
<stop stop-color="#00FFDE"/>
<stop offset="1" stop-color="#888EF2"/>
</linearGradient>
</defs>
</svg>
