<svg width="210" height="55" viewBox="0 0 210 55" fill="none" xmlns="http://www.w3.org/2000/svg">
<path d="M23.8295 2.08584L24.8239 22.578C24.8239 22.578 24.9139 23.4335 24.4925 23.7256C24.0711 24.0177 23.3324 23.7256 23.3324 23.7256L3.94191 16.3484C3.94191 16.3484 3.4447 16.1844 3.4447 15.6926C3.4447 15.0693 3.94191 14.5451 3.94191 14.5451L7.42222 10.9385C7.42222 10.9385 7.75368 10.6106 8.25086 10.6106C8.5823 10.6106 9.07953 10.9385 9.07953 10.9385L18.029 16.1844C18.029 16.1844 18.8403 16.5295 19.1891 16.1844C19.5379 15.8394 19.3548 15.2008 19.3548 15.2008L17.2004 5.52851C17.2004 5.52851 16.9602 4.65083 17.0346 4.38097C17.1309 4.03155 17.6975 3.72521 17.6975 3.72521L22.6694 1.43009C22.6694 1.43009 23.1405 1.19428 23.4981 1.43009C23.8557 1.6659 23.8295 2.08584 23.8295 2.08584Z" fill="#C32130" stroke="#9B333C" stroke-width="0.5"/>
<path d="M31.0993 2.08584L30.1046 22.578C30.1046 22.578 30.0148 23.4335 30.4362 23.7256C30.8574 24.0177 31.5964 23.7256 31.5964 23.7256L50.9868 16.3484C50.9868 16.3484 51.484 16.1844 51.484 15.6926C51.484 15.0693 50.9868 14.5451 50.9868 14.5451L47.5066 10.9385C47.5066 10.9385 47.1749 10.6106 46.6778 10.6106C46.3464 10.6106 45.8493 10.9385 45.8493 10.9385L36.8998 16.1844C36.8998 16.1844 36.0884 16.5295 35.7396 16.1844C35.3909 15.8394 35.5738 15.2008 35.5738 15.2008L37.7283 5.52851C37.7283 5.52851 37.9685 4.65083 37.8942 4.38097C37.7978 4.03155 37.2312 3.72521 37.2312 3.72521L32.2591 1.43009C32.2591 1.43009 31.7883 1.19428 31.4306 1.43009C31.0729 1.6659 31.0993 2.08584 31.0993 2.08584Z" fill="#C32130" stroke="#9B333C" stroke-width="0.5"/>
<path d="M53.0702 23.5338L33.4314 28.9981C33.4314 28.9981 32.5963 29.1799 32.4528 29.6743C32.309 30.1687 32.8157 30.7838 32.8157 30.7838L45.8442 47.0184C45.8442 47.0184 46.1545 47.4425 46.6184 47.2884C47.2061 47.0933 47.545 46.4538 47.545 46.4538L49.8571 41.9962C49.8571 41.9962 50.0625 41.5767 49.9068 41.1013C49.8032 40.7842 49.3383 40.4114 49.3383 40.4114L41.5888 33.4948C41.5888 33.4948 41.0094 32.827 41.2256 32.3853C41.4417 31.9437 42.1014 31.9189 42.1014 31.9189L51.8985 30.9513C51.8985 30.9513 52.8014 30.9062 53.0327 30.7506C53.3321 30.5491 53.4436 29.9113 53.4436 29.9113L54.052 24.438C54.052 24.438 54.1267 23.9137 53.7924 23.6455C53.4581 23.3774 53.0702 23.5338 53.0702 23.5338Z" fill="#C32130" stroke="#9B333C" stroke-width="0.5"/>
<path d="M1.98885 23.5338L21.6278 28.9981C21.6278 28.9981 22.4627 29.1799 22.6063 29.6743C22.7499 30.1687 22.2432 30.7838 22.2432 30.7838L9.21484 47.0184C9.21484 47.0184 8.90459 47.4425 8.44071 47.2884C7.85283 47.0933 7.51402 46.4538 7.51402 46.4538L5.20192 41.9962C5.20192 41.9962 4.99644 41.5767 5.1521 41.1013C5.25585 40.7842 5.72074 40.4114 5.72074 40.4114L13.4703 33.4948C13.4703 33.4948 14.0497 32.827 13.8335 32.3853C13.6173 31.9437 12.9576 31.9189 12.9576 31.9189L3.16055 30.9513C3.16055 30.9513 2.25758 30.9062 2.02633 30.7506C1.72694 30.5491 1.61537 29.9113 1.61537 29.9113L1.00718 24.438C1.00718 24.438 0.932255 23.9137 1.26659 23.6455C1.60095 23.3774 1.98885 23.5338 1.98885 23.5338Z" fill="#C32130" stroke="#9B333C" stroke-width="0.5"/>
<path d="M15.5572 51.2126L26.4153 33.8522C26.4153 33.8522 26.8289 33.0995 27.3405 33.1036C27.8519 33.1077 28.2908 33.7737 28.2908 33.7737L39.9722 51.0161C39.9722 51.0161 40.2861 51.4376 40.0061 51.8405C39.6511 52.351 38.9453 52.4932 38.9453 52.4932L34.04 53.4375C34.04 53.4375 33.5817 53.5147 33.1744 53.2274C32.9029 53.0359 32.6824 52.4803 32.6824 52.4803L28.3395 43.014C28.3395 43.014 27.8716 42.2628 27.3892 42.344C26.9069 42.4252 26.6932 43.0541 26.6932 43.0541L22.9486 52.2215C22.9486 52.2215 22.6453 53.0793 22.4307 53.2572C22.1527 53.4878 21.5141 53.4116 21.5141 53.4116L16.134 52.42C16.134 52.42 15.6138 52.3411 15.4552 51.9415C15.2966 51.5416 15.5572 51.2126 15.5572 51.2126Z" fill="#C32130" stroke="#9B333C" stroke-width="0.5"/>
<rect x="62.4506" y="0.25" width="0.816142" height="54.5" fill="#C32130" stroke="#9B333C" stroke-width="0.5"/>
<mask id="path-7-inside-1_40_1470" fill="white">
<path d="M75.8372 9.87183C76.0189 8.56424 78.4485 8.45879 80.106 8.56424C82.3767 8.71187 83.1714 10.7998 83.1714 10.7998L86.5773 10.4834C86.5773 10.4834 86.0097 5 79.4703 5C75.3604 5 72.6811 7.02466 72.3632 9.63984C71.4322 17.1058 83.1714 14.7226 82.6945 18.5188C82.6037 19.2991 81.4684 20.0795 78.4485 19.8897C75.8372 19.742 75.5194 17.5276 75.5194 17.5276L71.9999 17.6963C71.9999 17.6963 72.2269 23.4539 79.4703 23.4539C83.4666 23.4539 85.828 21.9987 86.1686 19.1304C87.1677 11.1372 75.315 14.2375 75.8372 9.87183ZM92.9663 19.9108V15.6294H102.321V12.3605H92.9663V8.54315H103.184V5.27417H89.4469V23.1586H103.616V19.9108H92.9663ZM117.533 5.27417V17.4432L110.517 5.29526H106.543V23.1586H110.063V11.3903L116.852 23.1797L120.848 23.1586V5.27417H117.533ZM128.002 23.1797V5.29526H124.482V23.1797H128.002ZM145.45 5.27417L140.409 18.329L135.368 5.27417L131.644 5.29526V23.1797H135.164V14.4062L138.547 23.1797H142.271L145.359 15.2076V23.1797H148.878L149.196 5.27417H145.45ZM156.207 19.9108V15.6294H165.562V12.3605H156.207V8.54315H166.425V5.27417H152.687V23.1586H166.856V19.9108H156.207ZM180.773 5.27417V17.4432L173.757 5.29526H169.784V23.1586H173.303V11.3903L180.092 23.1797L184.089 23.1586V5.27417H180.773ZM84.7154 36.7976C84.7154 36.7976 86.8952 35.8907 86.8952 33.402C86.8952 30.9134 84.9198 28.6778 82.1042 28.6778C78.9934 28.6778 72.7719 28.6778 72.7719 28.6778V46.5623H82.5129C84.0342 46.5623 87.9397 45.4234 87.9397 41.2265C87.9397 37.7888 84.7154 36.7976 84.7154 36.7976ZM76.2914 31.9468H81.3549C81.8771 31.9468 83.353 32.4108 83.353 33.8028C83.353 35.3634 81.8771 35.6587 81.3549 35.6587H76.2914V31.9468ZM81.809 43.2722H76.2914V38.4426C76.2914 38.4426 79.4248 38.4426 81.809 38.4426C83.2395 38.4426 84.4202 39.5182 84.4202 40.868C84.3975 42.1966 83.2395 43.2722 81.809 43.2722ZM97.7703 28.3826C91.0265 28.3826 90.1637 34.0558 90.1637 37.6201C90.1637 41.1632 91.1173 46.8365 97.7703 46.8365C104.469 46.8365 105.604 41.1632 105.604 37.6201C105.604 34.0558 104.491 28.3826 97.7703 28.3826ZM97.7703 43.5675C94.4098 43.5675 93.6832 41.3952 93.6832 37.6201C93.6832 34.8994 94.0238 31.6516 97.7703 31.6516C101.494 31.6516 102.084 34.8994 102.084 37.6201C102.084 41.3952 101.108 43.5675 97.7703 43.5675ZM112.103 43.2722V28.6778H108.583V46.5623L121.344 46.5412V43.2722H112.103ZM133.407 28.6568H129.047L121.917 46.5623H125.573L127.548 41.6061H134.928L136.881 46.5623H140.536L133.407 28.6568ZM128.616 38.9488L131.136 32.1577L133.838 38.9488H128.616ZM145.331 33.2544C145.513 31.9468 147.942 31.8414 149.6 31.9468C151.87 32.0944 152.665 34.1824 152.665 34.1824L156.071 33.866C156.071 33.866 155.503 28.3826 148.964 28.3826C144.854 28.3826 142.175 30.4072 141.857 33.0224C140.926 40.4883 152.665 38.1051 152.188 41.9014C152.097 42.6817 150.962 43.4621 147.942 43.2722C145.331 43.1246 145.013 40.9101 145.013 40.9101L141.493 41.0789C141.493 41.0789 141.721 46.8365 148.964 46.8365C152.96 46.8365 155.322 45.3813 155.662 42.513C156.661 34.5198 144.809 37.6201 145.331 33.2544ZM169.726 28.6778V35.975H162.46V28.6778H158.94V46.5412H162.46V39.244H169.726V46.5623L173.245 46.5412V28.6778H169.726ZM186.802 28.6568H182.442L175.313 46.5623H178.968L180.944 41.6061H188.323L190.276 46.5623H193.932L186.802 28.6568ZM182.011 38.9488L184.531 32.1577L187.233 38.9488H182.011ZM206.707 45.5922C209.432 43.7151 210 40.1298 210 37.6201C210 34.0558 208.887 28.3826 202.166 28.3826C195.422 28.3826 194.56 34.0558 194.56 37.6201C194.56 41.1632 195.513 46.8365 202.166 46.8365C202.757 46.8365 203.302 46.7943 203.801 46.7099C204.232 47.7434 205.322 50 208.819 50V47.0685C207.093 47.0685 206.866 45.9507 206.707 45.5922ZM205.504 42.1123C204.687 40.2353 202.734 39.4549 200.758 39.4549V42.3654C202.075 42.3654 202.416 42.8926 202.734 43.5464C202.552 43.5675 202.371 43.5675 202.166 43.5675C198.806 43.5675 198.079 41.3952 198.079 37.6201C198.079 34.8994 198.42 31.6516 202.166 31.6516C205.913 31.6516 206.48 34.8994 206.48 37.6201C206.48 39.5604 206.208 41.0999 205.504 42.1123Z"/>
</mask>
<path d="M75.8372 9.87183C76.0189 8.56424 78.4485 8.45879 80.106 8.56424C82.3767 8.71187 83.1714 10.7998 83.1714 10.7998L86.5773 10.4834C86.5773 10.4834 86.0097 5 79.4703 5C75.3604 5 72.6811 7.02466 72.3632 9.63984C71.4322 17.1058 83.1714 14.7226 82.6945 18.5188C82.6037 19.2991 81.4684 20.0795 78.4485 19.8897C75.8372 19.742 75.5194 17.5276 75.5194 17.5276L71.9999 17.6963C71.9999 17.6963 72.2269 23.4539 79.4703 23.4539C83.4666 23.4539 85.828 21.9987 86.1686 19.1304C87.1677 11.1372 75.315 14.2375 75.8372 9.87183ZM92.9663 19.9108V15.6294H102.321V12.3605H92.9663V8.54315H103.184V5.27417H89.4469V23.1586H103.616V19.9108H92.9663ZM117.533 5.27417V17.4432L110.517 5.29526H106.543V23.1586H110.063V11.3903L116.852 23.1797L120.848 23.1586V5.27417H117.533ZM128.002 23.1797V5.29526H124.482V23.1797H128.002ZM145.45 5.27417L140.409 18.329L135.368 5.27417L131.644 5.29526V23.1797H135.164V14.4062L138.547 23.1797H142.271L145.359 15.2076V23.1797H148.878L149.196 5.27417H145.45ZM156.207 19.9108V15.6294H165.562V12.3605H156.207V8.54315H166.425V5.27417H152.687V23.1586H166.856V19.9108H156.207ZM180.773 5.27417V17.4432L173.757 5.29526H169.784V23.1586H173.303V11.3903L180.092 23.1797L184.089 23.1586V5.27417H180.773ZM84.7154 36.7976C84.7154 36.7976 86.8952 35.8907 86.8952 33.402C86.8952 30.9134 84.9198 28.6778 82.1042 28.6778C78.9934 28.6778 72.7719 28.6778 72.7719 28.6778V46.5623H82.5129C84.0342 46.5623 87.9397 45.4234 87.9397 41.2265C87.9397 37.7888 84.7154 36.7976 84.7154 36.7976ZM76.2914 31.9468H81.3549C81.8771 31.9468 83.353 32.4108 83.353 33.8028C83.353 35.3634 81.8771 35.6587 81.3549 35.6587H76.2914V31.9468ZM81.809 43.2722H76.2914V38.4426C76.2914 38.4426 79.4248 38.4426 81.809 38.4426C83.2395 38.4426 84.4202 39.5182 84.4202 40.868C84.3975 42.1966 83.2395 43.2722 81.809 43.2722ZM97.7703 28.3826C91.0265 28.3826 90.1637 34.0558 90.1637 37.6201C90.1637 41.1632 91.1173 46.8365 97.7703 46.8365C104.469 46.8365 105.604 41.1632 105.604 37.6201C105.604 34.0558 104.491 28.3826 97.7703 28.3826ZM97.7703 43.5675C94.4098 43.5675 93.6832 41.3952 93.6832 37.6201C93.6832 34.8994 94.0238 31.6516 97.7703 31.6516C101.494 31.6516 102.084 34.8994 102.084 37.6201C102.084 41.3952 101.108 43.5675 97.7703 43.5675ZM112.103 43.2722V28.6778H108.583V46.5623L121.344 46.5412V43.2722H112.103ZM133.407 28.6568H129.047L121.917 46.5623H125.573L127.548 41.6061H134.928L136.881 46.5623H140.536L133.407 28.6568ZM128.616 38.9488L131.136 32.1577L133.838 38.9488H128.616ZM145.331 33.2544C145.513 31.9468 147.942 31.8414 149.6 31.9468C151.87 32.0944 152.665 34.1824 152.665 34.1824L156.071 33.866C156.071 33.866 155.503 28.3826 148.964 28.3826C144.854 28.3826 142.175 30.4072 141.857 33.0224C140.926 40.4883 152.665 38.1051 152.188 41.9014C152.097 42.6817 150.962 43.4621 147.942 43.2722C145.331 43.1246 145.013 40.9101 145.013 40.9101L141.493 41.0789C141.493 41.0789 141.721 46.8365 148.964 46.8365C152.96 46.8365 155.322 45.3813 155.662 42.513C156.661 34.5198 144.809 37.6201 145.331 33.2544ZM169.726 28.6778V35.975H162.46V28.6778H158.94V46.5412H162.46V39.244H169.726V46.5623L173.245 46.5412V28.6778H169.726ZM186.802 28.6568H182.442L175.313 46.5623H178.968L180.944 41.6061H188.323L190.276 46.5623H193.932L186.802 28.6568ZM182.011 38.9488L184.531 32.1577L187.233 38.9488H182.011ZM206.707 45.5922C209.432 43.7151 210 40.1298 210 37.6201C210 34.0558 208.887 28.3826 202.166 28.3826C195.422 28.3826 194.56 34.0558 194.56 37.6201C194.56 41.1632 195.513 46.8365 202.166 46.8365C202.757 46.8365 203.302 46.7943 203.801 46.7099C204.232 47.7434 205.322 50 208.819 50V47.0685C207.093 47.0685 206.866 45.9507 206.707 45.5922ZM205.504 42.1123C204.687 40.2353 202.734 39.4549 200.758 39.4549V42.3654C202.075 42.3654 202.416 42.8926 202.734 43.5464C202.552 43.5675 202.371 43.5675 202.166 43.5675C198.806 43.5675 198.079 41.3952 198.079 37.6201C198.079 34.8994 198.42 31.6516 202.166 31.6516C205.913 31.6516 206.48 34.8994 206.48 37.6201C206.48 39.5604 206.208 41.0999 205.504 42.1123Z" fill="#C32130" stroke="#9B333C" mask="url(#path-7-inside-1_40_1470)"/>
<path d="M136.77 2.29244L140.186 7.75439C140.186 7.75439 140.317 7.99123 140.478 7.98993C140.639 7.98864 140.777 7.77911 140.777 7.77911L144.452 2.35433C144.452 2.35433 144.551 2.22174 144.462 2.09498C144.351 1.93435 144.129 1.88958 144.129 1.88958L142.585 1.5925C142.585 1.5925 142.441 1.56824 142.313 1.65858C142.228 1.71881 142.158 1.89366 142.158 1.89366L140.792 4.8719C140.792 4.8719 140.645 5.10826 140.493 5.08272C140.341 5.05717 140.274 4.85934 140.274 4.85934L139.096 1.97507C139.096 1.97507 139 1.70524 138.933 1.6492C138.845 1.57666 138.645 1.60067 138.645 1.60067L136.952 1.91263C136.952 1.91263 136.788 1.93746 136.738 2.06321C136.688 2.18896 136.77 2.29244 136.77 2.29244Z" fill="#C32130" stroke="#9B333C" stroke-width="0.5"/>
</svg>
