<svg width="40" height="40" viewBox="0 0 40 40" fill="none" xmlns="http://www.w3.org/2000/svg">
<circle cx="20" cy="20" r="20" fill="url(#paint0_linear_1_8)"/>
<path d="M28.1561 28.2498C27.6384 28.2498 27.2186 28.6695 27.2186 29.1873C27.2186 29.4487 27.1301 29.6686 26.9554 29.8411C26.7722 30.0221 26.5062 30.1269 26.2461 30.1249C25.9895 30.1216 25.7812 30.0342 25.6092 29.8574L20.6719 24.7835C20.4954 24.6021 20.253 24.4998 20 24.4998C19.747 24.4998 19.5046 24.6021 19.3281 24.7835L14.3907 29.8574C14.22 30.0328 14.0102 30.1203 13.7492 30.1249C13.4862 30.1303 13.2215 30.0255 13.0395 29.8467C12.8682 29.6783 12.7813 29.462 12.7813 29.2036V11.75C12.7813 10.7161 13.6224 9.87495 14.6563 9.87495H25.3436C26.3775 9.87495 27.2186 10.7161 27.2186 11.75V24.5467C27.2186 25.0645 27.6384 25.4842 28.1561 25.4842C28.6739 25.4842 29.0936 25.0645 29.0936 24.5467V11.75C29.0936 9.68225 27.4114 8 25.3436 8H14.6563C12.5885 8 10.9063 9.68225 10.9063 11.75V29.2036C10.9063 29.9618 11.1972 30.6651 11.7254 31.1841C12.2548 31.7042 12.9837 32 13.7322 32C13.7489 32 13.7656 31.9999 13.7822 31.9996C14.5412 31.9862 15.2162 31.6977 15.7345 31.165L20 26.7815L24.2655 31.165C24.7875 31.7015 25.4642 31.9901 26.2224 31.9997C26.9835 32.0075 27.7325 31.7089 28.2728 31.1752C28.8021 30.6526 29.0936 29.9466 29.0936 29.1873C29.0936 28.6695 28.6739 28.2498 28.1561 28.2498Z" fill="white"/>
<defs>
<linearGradient id="paint0_linear_1_8" x1="20" y1="-2.60163" x2="20" y2="55.935" gradientUnits="userSpaceOnUse">
<stop stop-color="#FFE600"/>
<stop offset="1" stop-color="#F23E17"/>
</linearGradient>
</defs>
</svg>
