<svg width="24" height="24" viewBox="0 0 24 24" fill="none" xmlns="http://www.w3.org/2000/svg">
<path d="M9.65928 19.3102C11.8044 19.3102 13.8882 18.5945 15.5806 17.2764L21.9654 23.6611C22.4423 24.1218 23.2023 24.1086 23.663 23.6316C24.1123 23.1663 24.1123 22.4287 23.663 21.9635L17.2782 15.5787C20.5491 11.3682 19.7874 5.3033 15.5769 2.0324C11.3664 -1.23851 5.30152 -0.476829 2.03061 3.73371C-1.2403 7.94425 -0.478615 14.0091 3.73193 17.2801C5.42705 18.5969 7.51272 19.3113 9.65928 19.3102ZM4.52918 4.52727C7.36248 1.69391 11.9562 1.69386 14.7895 4.52717C17.6229 7.36047 17.6229 11.9542 14.7896 14.7875C11.9563 17.6209 7.36264 17.6209 4.52928 14.7876C4.52923 14.7876 4.52923 14.7876 4.52918 14.7875C1.69587 11.9749 1.67918 7.39791 4.49184 4.56461C4.50427 4.55213 4.5167 4.5397 4.52918 4.52727Z" fill="#3C3664"/>
</svg>
