<svg width="24" height="24" viewBox="0 0 24 24" fill="none" xmlns="http://www.w3.org/2000/svg">
<g clip-path="url(#clip0_209_1022)">
<path d="M23.6294 2.38403C23.3362 2.02551 22.8971 1.82812 22.3929 1.82812C22.1187 1.82812 21.8283 1.8858 21.5299 1.99988L1.21433 9.75494C0.136207 10.1664 -0.00899552 10.7838 0.000342843 11.1152C0.00968121 11.4467 0.189674 12.0549 1.28941 12.4048C1.296 12.4069 1.30259 12.4089 1.30918 12.4107L5.52317 13.6166L7.8021 20.1334C8.11283 21.0218 8.81028 21.5737 9.62253 21.5737C10.1347 21.5737 10.6384 21.3591 11.0793 20.9533L13.6858 18.5533L17.4664 21.5975C17.4668 21.5978 17.4673 21.598 17.4677 21.5984L17.5036 21.6273C17.5069 21.6299 17.5103 21.6326 17.5136 21.6352C17.9339 21.9611 18.3926 22.1332 18.8406 22.1334H18.8408C19.7162 22.1334 20.4133 21.4854 20.6164 20.4827L23.945 4.04645C24.0787 3.38672 23.9666 2.79639 23.6294 2.38403ZM6.9329 13.3876L15.063 9.23419L10.0006 14.6133C9.9177 14.7014 9.85892 14.8092 9.82999 14.9266L8.85386 18.8806L6.9329 13.3876ZM10.1266 19.9188C10.0929 19.9497 10.0591 19.9774 10.0252 20.0028L10.9308 16.3348L12.5782 17.6614L10.1266 19.9188ZM22.5668 3.76721L19.2381 20.2037C19.2061 20.361 19.1037 20.727 18.8406 20.727C18.7106 20.727 18.5473 20.6561 18.3801 20.5274L14.0962 17.0781C14.0956 17.0775 14.0949 17.077 14.0942 17.0766L11.5451 15.024L18.8659 7.24512C19.1003 6.99609 19.1215 6.61469 18.9162 6.34113C18.7108 6.06757 18.3385 5.98151 18.034 6.13715L5.99338 12.2884L1.72208 11.0663L22.0314 3.31366C22.203 3.24811 22.3227 3.23438 22.3929 3.23438C22.4359 3.23438 22.5124 3.2395 22.5408 3.27448C22.5782 3.32007 22.6258 3.47552 22.5668 3.76721Z" fill="url(#paint0_linear_209_1022)"/>
</g>
<defs>
<linearGradient id="paint0_linear_209_1022" x1="12" y1="0.507455" x2="12" y2="30.2225" gradientUnits="userSpaceOnUse">
<stop stop-color="#00FFDE"/>
<stop offset="1" stop-color="#888EF2"/>
</linearGradient>
<clipPath id="clip0_209_1022">
<rect width="24" height="24" fill="white"/>
</clipPath>
</defs>
</svg>
