<svg width="55" height="55" viewBox="0 0 55 55" fill="none" xmlns="http://www.w3.org/2000/svg">
<path d="M24.375 27.4997L16.25 27.4997L27.0833 16.6663L37.9167 27.4997L29.7917 27.4997L29.7917 38.333L24.375 38.333L24.375 27.4997ZM-1.18385e-06 27.4997C-1.83734e-06 12.5497 12.1333 0.416343 27.0833 0.416343C42.0333 0.416342 54.1667 12.5497 54.1667 27.4997C54.1667 42.4497 42.0333 54.583 27.0833 54.583C12.1333 54.583 -5.30365e-07 42.4497 -1.18385e-06 27.4997ZM48.75 27.4997C48.75 15.5288 39.0542 5.83301 27.0833 5.83301C15.1125 5.83301 5.41666 15.5288 5.41667 27.4997C5.41667 39.4705 15.1125 49.1663 27.0833 49.1663C39.0542 49.1663 48.75 39.4705 48.75 27.4997Z" fill="url(#paint0_linear_209_1028)"/>
<defs>
<linearGradient id="paint0_linear_209_1028" x1="27.0833" y1="54.583" x2="27.0833" y2="0.416343" gradientUnits="userSpaceOnUse">
<stop stop-color="#EC008C"/>
<stop offset="1" stop-color="#FC6767"/>
</linearGradient>
</defs>
</svg>
