<svg width="24" height="24" viewBox="0 0 24 24" fill="none" xmlns="http://www.w3.org/2000/svg">
<path d="M23.8475 11.5332C23.6331 11.2399 18.5245 4.35162 11.9999 4.35162C5.47529 4.35162 0.366469 11.2399 0.152297 11.5329C-0.0507657 11.8111 -0.0507657 12.1885 0.152297 12.4668C0.366469 12.7601 5.47529 19.6483 11.9999 19.6483C18.5245 19.6483 23.6331 12.76 23.8475 12.467C24.0508 12.1888 24.0508 11.8111 23.8475 11.5332ZM11.9999 18.0659C7.19383 18.0659 3.03127 13.4941 1.79907 11.9994C3.02968 10.5035 7.18351 5.93403 11.9999 5.93403C16.8057 5.93403 20.968 10.5051 22.2007 12.0005C20.9701 13.4964 16.8163 18.0659 11.9999 18.0659Z" fill="#1BB821"/>
<path d="M12.0002 7.25275C9.38261 7.25275 7.25293 9.38242 7.25293 12C7.25293 14.6176 9.38261 16.7473 12.0002 16.7473C14.6178 16.7473 16.7475 14.6176 16.7475 12C16.7475 9.38242 14.6178 7.25275 12.0002 7.25275ZM12.0002 15.1648C10.255 15.1648 8.83539 13.7451 8.83539 12C8.83539 10.2549 10.2551 8.8352 12.0002 8.8352C13.7453 8.8352 15.165 10.2549 15.165 12C15.165 13.7451 13.7454 15.1648 12.0002 15.1648Z" fill="#1BB821"/>
</svg>
