<svg width="55" height="53" viewBox="0 0 55 53" fill="none" xmlns="http://www.w3.org/2000/svg">
<path d="M23.8297 1.08584L24.8241 21.578C24.8241 21.578 24.914 22.4335 24.4926 22.7256C24.0712 23.0177 23.3325 22.7256 23.3325 22.7256L3.94203 15.3484C3.94203 15.3484 3.44482 15.1844 3.44482 14.6926C3.44482 14.0693 3.94203 13.5451 3.94203 13.5451L7.42234 9.93846C7.42234 9.93846 7.75381 9.61058 8.25098 9.61058C8.58242 9.61058 9.07966 9.93846 9.07966 9.93846L18.0291 15.1844C18.0291 15.1844 18.8404 15.5295 19.1892 15.1844C19.538 14.8394 19.3549 14.2008 19.3549 14.2008L17.2005 4.52851C17.2005 4.52851 16.9603 3.65083 17.0347 3.38097C17.1311 3.03155 17.6976 2.72521 17.6976 2.72521L22.6695 0.430091C22.6695 0.430091 23.1406 0.194282 23.4982 0.430091C23.8558 0.665898 23.8297 1.08584 23.8297 1.08584Z" fill="#C32130" stroke="#9B333C" stroke-width="0.5"/>
<path d="M31.0991 1.08584L30.1045 21.578C30.1045 21.578 30.0146 22.4335 30.4361 22.7256C30.8573 23.0177 31.5963 22.7256 31.5963 22.7256L50.9867 15.3484C50.9867 15.3484 51.4839 15.1844 51.4839 14.6926C51.4839 14.0693 50.9867 13.5451 50.9867 13.5451L47.5065 9.93846C47.5065 9.93846 47.1748 9.61058 46.6776 9.61058C46.3463 9.61058 45.8491 9.93846 45.8491 9.93846L36.8997 15.1844C36.8997 15.1844 36.0883 15.5295 35.7395 15.1844C35.3907 14.8394 35.5737 14.2008 35.5737 14.2008L37.7282 4.52851C37.7282 4.52851 37.9684 3.65083 37.894 3.38097C37.7976 3.03155 37.231 2.72521 37.231 2.72521L32.259 0.430091C32.259 0.430091 31.7881 0.194282 31.4305 0.430091C31.0728 0.665898 31.0991 1.08584 31.0991 1.08584Z" fill="#C32130" stroke="#9B333C" stroke-width="0.5"/>
<path d="M53.0703 22.5338L33.4315 27.9981C33.4315 27.9981 32.5964 28.1799 32.4529 28.6743C32.3091 29.1687 32.8159 29.7838 32.8159 29.7838L45.8443 46.0184C45.8443 46.0184 46.1546 46.4425 46.6186 46.2884C47.2062 46.0933 47.5451 45.4538 47.5451 45.4538L49.8573 40.9962C49.8573 40.9962 50.0626 40.5767 49.9069 40.1013C49.8033 39.7842 49.3384 39.4114 49.3384 39.4114L41.5889 32.4948C41.5889 32.4948 41.0095 31.827 41.2257 31.3853C41.4419 30.9437 42.1016 30.9189 42.1016 30.9189L51.8986 29.9513C51.8986 29.9513 52.8015 29.9062 53.0328 29.7506C53.3322 29.5491 53.4438 28.9113 53.4438 28.9113L54.0521 23.438C54.0521 23.438 54.1268 22.9137 53.7925 22.6455C53.4582 22.3774 53.0703 22.5338 53.0703 22.5338Z" fill="#C32130" stroke="#9B333C" stroke-width="0.5"/>
<path d="M1.98885 22.5338L21.6278 27.9981C21.6278 27.9981 22.4627 28.1799 22.6063 28.6743C22.7499 29.1687 22.2432 29.7838 22.2432 29.7838L9.21484 46.0184C9.21484 46.0184 8.90459 46.4425 8.44071 46.2884C7.85283 46.0933 7.51402 45.4538 7.51402 45.4538L5.20192 40.9962C5.20192 40.9962 4.99644 40.5767 5.1521 40.1013C5.25585 39.7842 5.72074 39.4114 5.72074 39.4114L13.4703 32.4948C13.4703 32.4948 14.0497 31.827 13.8335 31.3853C13.6173 30.9437 12.9576 30.9189 12.9576 30.9189L3.16055 29.9513C3.16055 29.9513 2.25758 29.9062 2.02633 29.7506C1.72694 29.5491 1.61537 28.9113 1.61537 28.9113L1.00718 23.438C1.00718 23.438 0.932255 22.9137 1.26659 22.6455C1.60095 22.3774 1.98885 22.5338 1.98885 22.5338Z" fill="#C32130" stroke="#9B333C" stroke-width="0.5"/>
<path d="M15.5572 50.2126L26.4153 32.8522C26.4153 32.8522 26.8289 32.0995 27.3405 32.1036C27.8519 32.1077 28.2908 32.7737 28.2908 32.7737L39.9722 50.0161C39.9722 50.0161 40.2861 50.4376 40.0061 50.8405C39.6511 51.351 38.9453 51.4932 38.9453 51.4932L34.04 52.4375C34.04 52.4375 33.5817 52.5147 33.1744 52.2274C32.9029 52.0359 32.6824 51.4803 32.6824 51.4803L28.3395 42.014C28.3395 42.014 27.8716 41.2628 27.3892 41.344C26.9069 41.4252 26.6932 42.0541 26.6932 42.0541L22.9486 51.2215C22.9486 51.2215 22.6453 52.0793 22.4307 52.2572C22.1527 52.4878 21.5141 52.4116 21.5141 52.4116L16.134 51.42C16.134 51.42 15.6138 51.3411 15.4552 50.9415C15.2966 50.5416 15.5572 50.2126 15.5572 50.2126Z" fill="#C32130" stroke="#9B333C" stroke-width="0.5"/>
</svg>
