<svg width="70" height="70" viewBox="0 0 70 70" fill="none" xmlns="http://www.w3.org/2000/svg">
<g clip-path="url(#clip0_352_3115)">
<path d="M67.8037 38.9827L59.691 34.3977V33.9792H67.1475C67.4536 33.9792 67.7471 33.8577 67.9637 33.6414C68.1802 33.4251 68.3021 33.1317 68.3025 32.8256V18.1912C68.3025 14.6457 66.894 11.2453 64.3869 8.73825C61.8798 6.23116 58.4795 4.82269 54.934 4.82269C51.3884 4.82269 47.9881 6.23116 45.481 8.73825C42.9739 11.2453 41.5654 14.6457 41.5654 18.1912V22.7806C41.5599 22.9356 41.5857 23.0902 41.6412 23.2351C41.6967 23.3799 41.7809 23.5121 41.8886 23.6237C41.9963 23.7353 42.1254 23.8241 42.2682 23.8848C42.411 23.9454 42.5646 23.9766 42.7197 23.9766C42.8748 23.9766 43.0284 23.9454 43.1712 23.8848C43.3139 23.8241 43.4431 23.7353 43.5508 23.6237C43.6585 23.5121 43.7426 23.3799 43.7982 23.2351C43.8537 23.0902 43.8795 22.9356 43.874 22.7806V18.1912C43.874 15.2579 45.0392 12.4448 47.1134 10.3706C49.1875 8.29648 52.0007 7.13123 54.934 7.13123C57.8672 7.13123 60.6804 8.29648 62.7545 10.3706C64.8287 12.4448 65.9939 15.2579 65.9939 18.1912V31.675H59.691V31.1442C60.8057 30.3767 61.7172 29.3499 62.3472 28.1521C62.9772 26.9543 63.3068 25.6215 63.3077 24.2681V20.9139C63.3072 20.6375 63.2077 20.3704 63.027 20.1612C62.8464 19.9519 62.5967 19.8144 62.3233 19.7735C60.9763 19.5274 59.6573 19.1473 58.3858 18.6389C58.2448 18.5836 58.0942 18.5566 57.9427 18.5594C57.7912 18.5623 57.6418 18.5949 57.5029 18.6555C57.364 18.7161 57.2385 18.8035 57.1334 18.9126C57.0282 19.0217 56.9457 19.1505 56.8903 19.2915C56.835 19.4326 56.8079 19.5832 56.8108 19.7347C56.8136 19.8861 56.8463 20.0356 56.9069 20.1745C57.0293 20.4549 57.2581 20.6753 57.5429 20.7871C58.6672 21.2293 59.8224 21.5885 60.9992 21.8619V24.271C60.9992 25.8796 60.3601 27.4223 59.2227 28.5598C58.0853 29.6972 56.5425 30.3362 54.934 30.3362C53.3254 30.3362 51.7827 29.6972 50.6452 28.5598C49.5078 27.4223 48.8688 25.8796 48.8688 24.271V20.9169C48.9016 20.0973 49.2099 19.3127 49.7438 18.69C50.4102 18.0414 51.0337 17.3501 51.6104 16.6206C52.327 17.6627 53.2478 18.5484 54.3171 19.2237C54.445 19.3098 54.5888 19.3694 54.7401 19.399C54.8915 19.4286 55.0472 19.4276 55.1981 19.3961C55.349 19.3646 55.4921 19.3032 55.6189 19.2155C55.7457 19.1278 55.8537 19.0156 55.9364 18.8855C56.0192 18.7554 56.0751 18.6101 56.1008 18.4581C56.1265 18.3061 56.1215 18.1504 56.0861 18.0004C56.0507 17.8503 55.9856 17.7089 55.8947 17.5843C55.8038 17.4598 55.6888 17.3548 55.5567 17.2754C54.2847 16.5143 53.3154 15.3364 52.8135 13.9417C52.7401 13.7033 52.5922 13.4948 52.3915 13.3467C52.1909 13.1986 51.948 13.1187 51.6986 13.1187C51.4493 13.1187 51.2064 13.1986 51.0058 13.3467C50.8051 13.4948 50.6572 13.7033 50.5838 13.9417C49.9783 15.1337 49.1409 16.1927 48.1206 17.0567C47.1411 18.1089 46.5862 19.4867 46.5631 20.9242V24.2783C46.5637 25.6309 46.8932 26.9631 47.5233 28.1599C48.1533 29.3568 49.065 30.3825 50.1798 31.1485V31.6852H47.6015C47.4464 31.6797 47.2919 31.7055 47.147 31.761C47.0022 31.8165 46.87 31.9006 46.7584 32.0084C46.6467 32.1161 46.558 32.2452 46.4973 32.388C46.4367 32.5308 46.4054 32.6843 46.4054 32.8395C46.4054 32.9946 46.4367 33.1481 46.4973 33.2909C46.558 33.4337 46.6467 33.5628 46.7584 33.6706C46.87 33.7783 47.0022 33.8624 47.147 33.9179C47.2919 33.9735 47.4464 33.9992 47.6015 33.9937H50.1769V34.4079L47.1479 36.1112C46.8814 36.2617 46.6856 36.5118 46.6036 36.8067C46.5215 37.1015 46.56 37.4168 46.7104 37.6833C46.8609 37.9498 47.111 38.1456 47.4059 38.2277C47.7007 38.3097 48.016 38.2713 48.2825 38.1208L50.5823 36.8214C50.9517 37.6685 51.5603 38.3894 52.3334 38.8956C53.1065 39.4019 54.0106 39.6715 54.9347 39.6715C55.8588 39.6715 56.7628 39.4019 57.536 38.8956C58.3091 38.3894 58.9176 37.6685 59.2871 36.8214L66.6677 40.9923C66.996 41.1772 67.2693 41.4459 67.4597 41.7711C67.65 42.0962 67.7507 42.4661 67.7512 42.8429V49.7379H64.6479V48.3831C64.7289 47.3487 64.607 46.3084 64.2892 45.3206C64.1779 45.0384 63.9594 44.8117 63.6815 44.6901C63.4036 44.5685 63.0888 44.5619 62.806 44.6717C62.5233 44.783 62.2951 45.0003 62.1701 45.2773C62.0451 45.5542 62.0331 45.8691 62.1367 46.1548C62.2944 46.6707 62.3711 47.2079 62.3642 47.7473C62.3537 47.7876 62.3454 47.8285 62.3394 47.8698V48.5114C62.1291 50.5139 61.4528 52.4392 60.3648 54.1333C58.7606 56.7933 58.4267 58.5856 59.1981 60.3181C60.0903 62.2588 61.142 64.1222 62.3423 65.8889V68.7881C62.3529 69.0871 62.4792 69.3704 62.6945 69.5782C62.9098 69.786 63.1973 69.9021 63.4966 69.9021C63.7958 69.9021 64.0833 69.786 64.2986 69.5782C64.5139 69.3704 64.6402 69.0871 64.6508 68.7881V52.0464H67.7542V68.7939C67.7542 69.1003 67.8758 69.394 68.0924 69.6107C68.309 69.8273 68.6028 69.9489 68.9091 69.9489C69.2155 69.9489 69.5093 69.8273 69.7259 69.6107C69.9425 69.394 70.0641 69.1003 70.0641 68.7939V42.8356C70.0612 42.051 69.8505 41.2811 69.4535 40.6043C69.0564 39.9276 68.4872 39.3681 67.8037 38.9827V38.9827ZM57.3825 34.9154C57.3825 35.5648 57.1245 36.1876 56.6653 36.6468C56.2061 37.106 55.5833 37.3639 54.934 37.3639C54.2846 37.3639 53.6618 37.106 53.2026 36.6468C52.7434 36.1876 52.4854 35.5648 52.4854 34.9154V32.2598C53.2837 32.5036 54.1138 32.6275 54.9485 32.6273C55.7734 32.6274 56.5936 32.505 57.3825 32.2642V34.9154ZM62.3408 61.4571C61.9835 60.8023 61.6248 60.0979 61.3083 59.3848C61.0167 58.7358 60.8387 57.8331 62.3408 55.3306V61.4571Z" fill="#3C3664"/>
<path d="M25.1942 34.3482C25.4639 34.3493 25.7253 34.255 25.9321 34.0819C26.1389 33.9088 26.2778 33.668 26.3241 33.4023C26.3704 33.1366 26.3211 32.8631 26.185 32.6302C26.049 32.3973 25.8349 32.2202 25.5806 32.13L22.664 31.0815V28.1313C24.1046 27.0829 25.1766 25.6056 25.7265 23.9109C26.2716 23.8749 26.808 23.7564 27.3175 23.5594C29.3227 22.7763 30.6338 19.8975 30.3013 17.0071C30.2763 16.5799 30.1591 16.1631 29.9577 15.7855C29.7563 15.4079 29.4755 15.0784 29.1346 14.8196C28.857 14.6219 28.5457 14.4766 28.2159 14.3909C28.7284 13.8345 29.1537 13.2036 29.4773 12.5198C29.9903 11.3373 30.334 10.0883 30.4981 8.80984C30.5202 8.65901 30.5119 8.5053 30.4737 8.35773C30.4355 8.21017 30.3681 8.07173 30.2757 7.95057C30.1832 7.82941 30.0674 7.72797 29.9351 7.65221C29.8028 7.57645 29.6567 7.5279 29.5054 7.50943C29.3541 7.49095 29.2007 7.50292 29.054 7.54462C28.9074 7.58633 28.7706 7.65693 28.6517 7.75227C28.5328 7.84762 28.4341 7.96578 28.3615 8.09982C28.2889 8.23385 28.2439 8.38105 28.229 8.53275C28.0921 9.59795 27.8064 10.6387 27.3802 11.6244C26.9639 12.3876 26.4215 13.0749 25.7761 13.6573C25.4304 12.2486 24.8821 10.9507 23.9954 10.5671C23.7351 10.4546 23.4498 10.4127 23.1681 10.4457C22.8864 10.4787 22.6185 10.5855 22.3913 10.7553C21.7366 11.3437 20.9523 11.7693 20.1021 11.9974C19.2519 12.2255 18.3598 12.2496 17.4986 12.0678C16.1721 11.8927 14.8948 11.4512 13.7434 10.7698C13.6002 10.6738 13.4371 10.6115 13.2663 10.5875C13.0956 10.5635 12.9216 10.5785 12.7575 10.6313C12.5919 10.6839 12.4402 10.7733 12.314 10.8927C12.1877 11.0122 12.0901 11.1586 12.0284 11.3211C11.6504 12.1924 11.158 13.0094 10.5642 13.7507C10.5 13.8338 10.4373 13.8965 10.3746 13.9709C9.28983 13.1291 8.45838 12.0043 7.97181 10.7204C7.48524 9.43641 7.36243 8.04307 7.6169 6.6938C8.4044 2.86567 12.6948 2.06213 16.154 2.06213C18.1171 2.03723 20.0671 2.38615 21.8998 3.09025C22.6016 3.35073 23.3209 3.56125 24.0523 3.72025C24.6064 3.8086 25.1726 3.78494 25.7174 3.65068C26.2622 3.51642 26.7746 3.27429 27.2242 2.93859C27.6712 3.78434 27.9855 4.69378 28.1561 5.63505C28.1781 5.78697 28.2305 5.93291 28.3101 6.06416C28.3898 6.1954 28.495 6.30926 28.6196 6.39895C28.7442 6.48864 28.8856 6.55232 29.0353 6.58619C29.185 6.62006 29.3401 6.62343 29.4911 6.5961C29.6422 6.56876 29.7862 6.51129 29.9146 6.4271C30.043 6.34291 30.1531 6.23373 30.2383 6.10607C30.3236 5.97841 30.3823 5.83489 30.4109 5.68406C30.4395 5.53323 30.4374 5.37818 30.4048 5.22817C30.1129 3.50162 29.4062 1.87171 28.3456 0.478379C28.2386 0.350328 28.1048 0.247329 27.9536 0.176654C27.8024 0.105978 27.6375 0.0693476 27.4706 0.0693476C27.3038 0.0693476 27.1389 0.105978 26.9877 0.176654C26.8365 0.247329 26.7027 0.350328 26.5956 0.478379C26.5854 0.488587 25.5238 1.68734 24.4927 1.4788C23.8641 1.33852 23.2457 1.15531 22.6421 0.930462C20.5698 0.146375 18.3696 -0.244812 16.154 -0.22308C10.0625 -0.22308 6.23731 2.06942 5.37836 6.23296C5.06934 7.66239 5.10344 9.14469 5.47784 10.5584C5.85224 11.9721 6.5563 13.277 7.53231 14.3661C7.15248 14.4431 6.79257 14.5974 6.47502 14.8196C6.13413 15.0784 5.85333 15.4079 5.65194 15.7855C5.45054 16.1631 5.33333 16.5799 5.30836 17.0071C4.97586 19.8975 6.2869 22.7763 8.29211 23.558C8.7358 23.7305 9.2009 23.8418 9.67461 23.889C10.2674 25.7322 11.4765 27.3151 13.0988 28.3719V31.0465L3.53502 34.424C2.48885 34.7939 1.58273 35.4784 0.940955 36.3836C0.299182 37.2888 -0.0468095 38.3704 -0.0495605 39.48V68.7925C-0.0495605 69.0958 0.0708975 69.3866 0.285314 69.601C0.499731 69.8154 0.790542 69.9359 1.09377 69.9359C1.397 69.9359 1.68782 69.8154 1.90223 69.601C2.11665 69.3866 2.23711 69.0958 2.23711 68.7925V52.2346H6.50565V68.794C6.50565 69.0972 6.62611 69.388 6.84052 69.6025C7.05494 69.8169 7.34575 69.9373 7.64898 69.9373C7.95221 69.9373 8.24302 69.8169 8.45744 69.6025C8.67186 69.388 8.79231 69.0972 8.79231 68.794V45.5642C8.79231 45.261 8.67186 44.9702 8.45744 44.7558C8.24302 44.5413 7.95221 44.4209 7.64898 44.4209C7.34575 44.4209 7.05494 44.5413 6.84052 44.7558C6.62611 44.9702 6.50565 45.261 6.50565 45.5642V49.948H2.23711V39.48C2.23884 38.8431 2.43771 38.2223 2.80641 37.703C3.17511 37.1836 3.69556 36.7911 4.29627 36.5794L13.4167 33.3609C13.7473 34.2781 14.3519 35.0716 15.1486 35.6336C15.9453 36.1957 16.8956 36.4992 17.8706 36.503C18.8456 36.5068 19.7982 36.2108 20.5993 35.655C21.4004 35.0992 22.0112 34.3105 22.349 33.3959L24.8136 34.2796C24.9355 34.3246 25.0643 34.3477 25.1942 34.3482V34.3482ZM26.1363 21.3355V16.6688C26.6828 16.5049 27.2654 16.5049 27.8119 16.6688C27.9509 16.8354 28.0295 17.044 28.035 17.2609C28.2552 19.1786 27.3846 21.073 26.4892 21.423C26.3708 21.4677 26.2495 21.5043 26.1261 21.5323C26.1275 21.4711 26.1363 21.404 26.1363 21.3355ZM9.12919 21.4375C8.23377 21.0875 7.36315 19.1932 7.58481 17.2755C7.58895 17.0583 7.66774 16.8492 7.80794 16.6834C8.28432 16.5248 8.79722 16.5121 9.28086 16.6469V21.3428C9.28086 21.3909 9.28086 21.4375 9.28086 21.4886C9.23419 21.4609 9.18752 21.4521 9.12919 21.4375ZM20.3759 31.7319C20.3759 32.3929 20.1133 33.0268 19.6459 33.4942C19.1785 33.9616 18.5446 34.2242 17.8836 34.2242C17.2226 34.2242 16.5886 33.9616 16.1212 33.4942C15.6539 33.0268 15.3913 32.3929 15.3913 31.7319V29.4146C17.0242 29.8905 18.7637 29.8548 20.3759 29.3125V31.7319ZM17.694 27.4692C16.0701 27.4673 14.5133 26.8214 13.3651 25.6731C12.2168 24.5249 11.5709 22.9681 11.569 21.3442V16.0038C11.8672 15.7436 12.1389 15.4544 12.3798 15.1405C12.8343 14.5518 13.2461 13.9314 13.6121 13.284C14.746 13.8059 15.9502 14.1587 17.1865 14.3311C18.2232 14.5447 19.2934 14.5358 20.3264 14.3051C21.3593 14.0743 22.3316 13.6268 23.1788 12.9923C23.4993 13.8825 23.7251 14.8039 23.8525 15.7413V21.3355C23.8508 22.1422 23.6901 22.9407 23.3796 23.6853C23.0691 24.4299 22.6149 25.1061 22.0429 25.675C21.471 26.244 20.7925 26.6947 20.0463 27.0013C19.3001 27.3079 18.5007 27.4644 17.694 27.4619V27.4692Z" fill="#3C3664"/>
<path d="M47.6335 49.3004C47.4261 48.2605 47.4595 47.187 47.7312 46.162C47.8351 45.8781 47.8235 45.5648 47.699 45.2893C47.5745 45.0138 47.3469 44.7982 47.0652 44.6886C46.7834 44.579 46.4699 44.5843 46.192 44.7033C45.9141 44.8222 45.6939 45.0454 45.5787 45.325C45.2653 46.2821 45.1396 47.2908 45.2083 48.2956L40.0005 46.4552V44.8714C41.1 44.1077 41.9292 43.0151 42.3689 41.7506C42.6827 41.7067 42.9905 41.6269 43.2862 41.5129C44.1399 41.0197 44.8206 40.275 45.2353 39.3806C45.65 38.4861 45.7786 37.4854 45.6035 36.5152C45.5824 36.1704 45.4869 35.8342 45.3235 35.5299C45.1601 35.2255 44.9327 34.9602 44.657 34.7521C44.5141 34.6522 44.3599 34.5695 44.1976 34.5056C44.8403 33.7072 45.2958 32.7749 45.5305 31.7772C45.7652 30.7796 45.7732 29.742 45.5539 28.7408C44.9078 25.6054 42.0612 23.8787 37.533 23.8787C35.9093 23.8622 34.2966 24.1481 32.7774 24.7216C32.3525 24.8795 31.9174 25.0086 31.4751 25.1081C31.0376 25.1898 30.4339 24.7187 30.2239 24.4781C30.118 24.3618 29.9889 24.2689 29.845 24.2053C29.7011 24.1417 29.5456 24.1089 29.3883 24.1089C29.2309 24.1089 29.0754 24.1417 28.9315 24.2053C28.7876 24.2689 28.6585 24.3618 28.5526 24.4781C27.6112 25.7508 27.0337 27.2556 26.8819 28.8314C26.7301 30.4071 27.0097 31.9945 27.6908 33.4235C27.8751 33.8251 28.1114 34.2007 28.3937 34.5406C28.2654 34.5981 28.1432 34.6685 28.0291 34.7506C27.7534 34.9587 27.526 35.2241 27.3626 35.5284C27.1992 35.8328 27.1037 36.1689 27.0826 36.5137C26.9073 37.484 27.0357 38.4847 27.4505 39.3792C27.8652 40.2737 28.5461 41.0184 29.3999 41.5114C29.7425 41.6443 30.1017 41.7297 30.4674 41.7652C30.8771 42.9133 31.6105 43.9183 32.5791 44.6585V46.48L28.9537 47.7808V45.5641C28.9592 45.4106 28.9337 45.2576 28.8787 45.1142C28.8238 44.9708 28.7405 44.8399 28.6338 44.7294C28.5272 44.6189 28.3994 44.531 28.258 44.471C28.1167 44.4109 27.9646 44.38 27.8111 44.38C27.6575 44.38 27.5055 44.4109 27.3641 44.471C27.2228 44.531 27.0949 44.6189 26.9883 44.7294C26.8817 44.8399 26.7984 44.9708 26.7434 45.1142C26.6885 45.2576 26.663 45.4106 26.6685 45.5641V48.6033L26.072 48.8177C25.2715 49.1056 24.5792 49.6332 24.0891 50.3286C23.5991 51.024 23.3352 51.8534 23.3333 52.7041V68.9237C23.3333 69.2138 23.4485 69.492 23.6536 69.6971C23.8587 69.9022 24.1369 70.0175 24.427 70.0175C24.7171 70.0175 24.9953 69.9022 25.2004 69.6971C25.4055 69.492 25.5208 69.2138 25.5208 68.9237V62.1629H28.0495V68.9237C28.0495 69.2138 28.1647 69.492 28.3699 69.6971C28.575 69.9022 28.8532 70.0175 29.1433 70.0175C29.4333 70.0175 29.7115 69.9022 29.9166 69.6971C30.1218 69.492 30.237 69.2138 30.237 68.9237V57.0923C30.237 56.8022 30.1218 56.524 29.9166 56.3189C29.7115 56.1137 29.4333 55.9985 29.1433 55.9985C28.8532 55.9985 28.575 56.1137 28.3699 56.3189C28.1647 56.524 28.0495 56.8022 28.0495 57.0923V59.9754H25.5208V52.7041C25.5224 52.3037 25.6474 51.9136 25.8785 51.5866C26.1097 51.2597 26.4359 51.0119 26.8128 50.8768L32.9291 48.6806C33.2235 49.3282 33.6987 49.877 34.2975 50.2611C34.8963 50.6452 35.5932 50.8482 36.3046 50.8458C37.016 50.8433 37.7116 50.6355 38.3077 50.2472C38.9039 49.859 39.3752 49.3069 39.6651 48.6573L45.9753 50.8856C46.3548 51.0186 46.6837 51.2661 46.9167 51.5939C47.1497 51.9217 47.2753 52.3136 47.2762 52.7158V59.9754H44.7518V57.0923C44.7518 56.8022 44.6366 56.524 44.4314 56.3189C44.2263 56.1137 43.9481 55.9985 43.658 55.9985C43.368 55.9985 43.0898 56.1137 42.8846 56.3189C42.6795 56.524 42.5643 56.8022 42.5643 57.0923V68.9237C42.5643 69.2138 42.6795 69.492 42.8846 69.6971C43.0898 69.9022 43.368 70.0175 43.658 70.0175C43.9481 70.0175 44.2263 69.9022 44.4314 69.6971C44.6366 69.492 44.7518 69.2138 44.7518 68.9237V62.1629H47.2805V68.9237C47.2805 69.2138 47.3958 69.492 47.6009 69.6971C47.806 69.9022 48.0842 70.0175 48.3743 70.0175C48.6644 70.0175 48.9426 69.9022 49.1477 69.6971C49.3528 69.492 49.468 69.2138 49.468 68.9237V52.7158C49.4657 52.0397 49.2972 51.3746 48.9773 50.779C48.6573 50.1834 48.1959 49.6756 47.6335 49.3004ZM42.7553 39.2773V36.521C42.9581 36.4768 43.168 36.4768 43.3708 36.521C43.4082 36.5991 43.43 36.6839 43.4349 36.7704C43.4975 37.2125 43.4696 37.6627 43.3527 38.0937C43.2359 38.5246 43.0327 38.9273 42.7553 39.2773V39.2773ZM30.0853 39.4027C29.7508 39.0583 29.502 38.6401 29.3588 38.1818C29.2157 37.7236 29.1823 37.2381 29.2614 36.7646C29.2789 36.6085 29.3139 36.5312 29.3066 36.5312C29.5634 36.4729 29.8304 36.4769 30.0853 36.5429V39.4027ZM31.7799 31.6589C31.4379 31.8724 31.1444 32.1551 30.9184 32.489C30.6923 32.8228 30.5387 33.2002 30.4674 33.5971C30.1611 33.296 29.9042 32.9486 29.7062 32.5675C29.2842 31.6687 29.0625 30.6891 29.0565 29.6962C29.0505 28.7034 29.2602 27.7211 29.6712 26.8173C30.3352 27.2381 31.1331 27.3942 31.9068 27.2548C32.4447 27.1374 32.9739 26.9829 33.4905 26.7925C34.7805 26.2949 36.1534 26.0475 37.536 26.0633C41.0097 26.0633 42.9872 27.1104 43.413 29.1783C43.5871 30.0558 43.5229 30.9638 43.2272 31.8081C42.9315 32.6524 42.4151 33.402 41.7316 33.9791C41.3432 33.4863 41.017 32.9476 40.7603 32.375C40.7027 32.2204 40.6111 32.0807 40.4922 31.9664C40.3733 31.852 40.2302 31.7659 40.0735 31.7143C39.9162 31.6618 39.7491 31.6459 39.5848 31.6679C39.4205 31.6899 39.2634 31.7492 39.1255 31.8412C38.3305 32.3099 37.4491 32.6135 36.5341 32.7337C35.9485 32.8631 35.3403 32.8492 34.7612 32.6933C34.1821 32.5375 33.6492 32.2441 33.2076 31.8383C33.0064 31.6855 32.7685 31.5885 32.5179 31.557C32.2672 31.5255 32.0126 31.5606 31.7799 31.6589V31.6589ZM37.8174 47.1362C37.8283 47.5366 37.6801 47.925 37.4052 48.2163C37.1304 48.5076 36.7512 48.6782 36.3509 48.6905C35.9506 48.7029 35.5616 48.556 35.2693 48.2822C34.977 48.0084 34.8052 47.6298 34.7914 47.2296C34.7879 47.1859 34.7816 47.1426 34.7724 47.0998V45.7391C35.3117 45.8948 35.8693 45.9777 36.4305 45.9856C36.8976 45.983 37.3628 45.9277 37.8174 45.8208V47.1362ZM36.4101 43.7981C35.3142 43.7969 34.2634 43.3615 33.488 42.5871C32.7125 41.8127 32.2755 40.7625 32.2728 39.6666V35.5002C32.3477 35.0128 32.4589 34.5317 32.6053 34.0608C33.2208 34.471 33.9113 34.7553 34.6372 34.8975C35.363 35.0397 36.1098 35.0368 36.8345 34.8891C37.6681 34.7738 38.4824 34.5467 39.2553 34.2139C39.4933 34.6144 39.7553 35.0001 40.0399 35.3689C40.199 35.578 40.3756 35.7732 40.5678 35.9523V39.6666C40.564 40.7657 40.1239 41.8183 39.3442 42.593C38.5646 43.3677 37.5092 43.8012 36.4101 43.7981V43.7981Z" fill="#3C3664"/>
</g>
<defs>
<clipPath id="clip0_352_3115">
<rect width="70" height="70" fill="white"/>
</clipPath>
</defs>
</svg>
