<svg width="50" height="50" viewBox="0 0 50 50" fill="none" xmlns="http://www.w3.org/2000/svg">
<path d="M21.6528 1.70041L22.5524 20.5721C22.5524 20.5721 22.6338 21.3599 22.2526 21.6289C21.8714 21.898 21.2031 21.6289 21.2031 21.6289L3.66147 14.8351C3.66147 14.8351 3.21167 14.6841 3.21167 14.2312C3.21167 13.6572 3.66147 13.1744 3.66147 13.1744L6.80993 9.85299C6.80993 9.85299 7.10979 9.55104 7.55956 9.55104C7.8594 9.55104 8.30923 9.85299 8.30923 9.85299L16.4054 14.6841C16.4054 14.6841 17.1393 15.0019 17.4549 14.6841C17.7704 14.3664 17.6048 13.7783 17.6048 13.7783L15.6557 4.87085C15.6557 4.87085 15.4385 4.06257 15.5058 3.81405C15.5929 3.49226 16.1055 3.21015 16.1055 3.21015L20.6033 1.09652C20.6033 1.09652 21.0295 0.879354 21.353 1.09652C21.6765 1.31368 21.6528 1.70041 21.6528 1.70041Z" fill="#C32130" stroke="#9B333C" stroke-width="0.5"/>
<path d="M28.2292 1.70041L27.3294 20.5721C27.3294 20.5721 27.2481 21.3599 27.6294 21.6289C28.0105 21.898 28.679 21.6289 28.679 21.6289L46.2205 14.8351C46.2205 14.8351 46.6703 14.6841 46.6703 14.2312C46.6703 13.6572 46.2205 13.1744 46.2205 13.1744L43.0722 9.85299C43.0722 9.85299 42.7721 9.55104 42.3224 9.55104C42.0226 9.55104 41.5728 9.85299 41.5728 9.85299L33.4767 14.6841C33.4767 14.6841 32.7427 15.0019 32.4272 14.6841C32.1116 14.3664 32.2771 13.7783 32.2771 13.7783L34.2262 4.87085C34.2262 4.87085 34.4435 4.06257 34.3763 3.81405C34.289 3.49226 33.7765 3.21015 33.7765 3.21015L29.2785 1.09652C29.2785 1.09652 28.8525 0.879354 28.529 1.09652C28.2054 1.31368 28.2292 1.70041 28.2292 1.70041Z" fill="#C32130" stroke="#9B333C" stroke-width="0.5"/>
<path d="M48.1053 21.4522L30.339 26.4844C30.339 26.4844 29.5836 26.6518 29.4538 27.1071C29.3237 27.5625 29.7821 28.1289 29.7821 28.1289L41.5683 43.0797C41.5683 43.0797 41.849 43.4702 42.2687 43.3284C42.8004 43.1486 43.107 42.5597 43.107 42.5597L45.1986 38.4546C45.1986 38.4546 45.3844 38.0683 45.2436 37.6305C45.1498 37.3385 44.7292 36.9952 44.7292 36.9952L37.7187 30.6255C37.7187 30.6255 37.1945 30.0105 37.3901 29.6038C37.5856 29.1971 38.1824 29.1742 38.1824 29.1742L47.0453 28.2832C47.0453 28.2832 47.8621 28.2416 48.0714 28.0983C48.3422 27.9127 48.4431 27.3254 48.4431 27.3254L48.9935 22.2849C48.9935 22.2849 49.0611 21.802 48.7587 21.5551C48.4562 21.3081 48.1053 21.4522 48.1053 21.4522Z" fill="#C32130" stroke="#9B333C" stroke-width="0.5"/>
<path d="M1.89457 21.4522L19.6609 26.4844C19.6609 26.4844 20.4163 26.6518 20.5462 27.1071C20.6761 27.5625 20.2176 28.1289 20.2176 28.1289L8.43156 43.0797C8.43156 43.0797 8.15089 43.4702 7.73125 43.3284C7.19941 43.1486 6.89291 42.5597 6.89291 42.5597L4.80127 38.4546C4.80127 38.4546 4.61538 38.0683 4.7562 37.6305C4.85006 37.3385 5.27062 36.9952 5.27062 36.9952L12.2813 30.6255C12.2813 30.6255 12.8055 30.0105 12.6098 29.6038C12.4142 29.1971 11.8175 29.1742 11.8175 29.1742L2.95454 28.2832C2.95454 28.2832 2.13767 28.2416 1.92847 28.0983C1.65763 27.9127 1.55669 27.3254 1.55669 27.3254L1.00649 22.2849C1.00649 22.2849 0.938714 21.802 1.24117 21.5551C1.54365 21.3081 1.89457 21.4522 1.89457 21.4522Z" fill="#C32130" stroke="#9B333C" stroke-width="0.5"/>
<path d="M14.1691 46.9424L23.9918 30.9548C23.9918 30.9548 24.366 30.2616 24.8288 30.2654C25.2915 30.2691 25.6885 30.8824 25.6885 30.8824L36.2561 46.7614C36.2561 46.7614 36.5401 47.1496 36.2868 47.5206C35.9656 47.9908 35.3271 48.1217 35.3271 48.1217L30.8896 48.9913C30.8896 48.9913 30.4749 49.0624 30.1064 48.7978C29.8609 48.6215 29.6614 48.1098 29.6614 48.1098L25.7326 39.3921C25.7326 39.3921 25.3093 38.7003 24.8729 38.7751C24.4366 38.8499 24.2432 39.429 24.2432 39.429L20.8557 47.8715C20.8557 47.8715 20.5813 48.6615 20.3871 48.8253C20.1357 49.0377 19.558 48.9675 19.558 48.9675L14.6909 48.0543C14.6909 48.0543 14.2203 47.9816 14.0768 47.6137C13.9333 47.2454 14.1691 46.9424 14.1691 46.9424Z" fill="#C32130" stroke="#9B333C" stroke-width="0.5"/>
</svg>
