<svg width="55" height="55" viewBox="0 0 55 55" fill="none" xmlns="http://www.w3.org/2000/svg">
<g clip-path="url(#clip0_720_3449)">
<path d="M5.5 55H27.5C28.9582 54.9985 30.3563 54.4186 31.3875 53.3875C32.4186 52.3563 32.9985 50.9582 33 49.5C33 49.2569 32.9034 49.0237 32.7315 48.8518C32.5596 48.6799 32.3265 48.5833 32.0833 48.5833C31.8402 48.5833 31.6071 48.6799 31.4352 48.8518C31.2632 49.0237 31.1667 49.2569 31.1667 49.5C31.1667 50.4725 30.7804 51.4051 30.0927 52.0927C29.4051 52.7804 28.4725 53.1667 27.5 53.1667H5.5C4.52754 53.1667 3.59491 52.7804 2.90728 52.0927C2.21964 51.4051 1.83333 50.4725 1.83333 49.5V5.5C1.83333 4.52754 2.21964 3.59491 2.90728 2.90728C3.59491 2.21964 4.52754 1.83333 5.5 1.83333H5.85017L7.84025 5.8135C8.06723 6.27134 8.41796 6.65641 8.85267 6.92504C9.28737 7.19367 9.78866 7.33512 10.2997 7.33333H22.7003C23.2113 7.33512 23.7126 7.19367 24.1473 6.92504C24.582 6.65641 24.9328 6.27134 25.1598 5.8135L27.1498 1.83333H27.5C28.4725 1.83333 29.4051 2.21964 30.0927 2.90728C30.7804 3.59491 31.1667 4.52754 31.1667 5.5V7.33333C31.1667 7.57645 31.2632 7.80961 31.4352 7.98151C31.6071 8.15342 31.8402 8.25 32.0833 8.25C32.3265 8.25 32.5596 8.15342 32.7315 7.98151C32.9034 7.80961 33 7.57645 33 7.33333V5.5C32.9985 4.04176 32.4186 2.64366 31.3875 1.61252C30.3563 0.581386 28.9582 0.00145606 27.5 0L5.5 0C4.04176 0.00145606 2.64366 0.581386 1.61252 1.61252C0.581386 2.64366 0.00145606 4.04176 0 5.5L0 49.5C0.00145606 50.9582 0.581386 52.3563 1.61252 53.3875C2.64366 54.4186 4.04176 54.9985 5.5 55ZM23.5198 4.99308C23.4443 5.14573 23.3274 5.27414 23.1826 5.36374C23.0377 5.45334 22.8707 5.50055 22.7003 5.5H10.2997C10.1293 5.50055 9.96228 5.45334 9.81742 5.36374C9.67257 5.27414 9.55573 5.14573 9.48017 4.99308L7.89983 1.83333H25.1002L23.5198 4.99308Z" fill="url(#paint0_linear_720_3449)"/>
<path d="M23.8333 51.3336C24.0764 51.3336 24.3096 51.237 24.4815 51.0651C24.6534 50.8932 24.75 50.66 24.75 50.4169C24.75 50.1738 24.6534 49.9406 24.4815 49.7687C24.3096 49.5968 24.0764 49.5002 23.8333 49.5002H9.16667C8.92355 49.5002 8.69039 49.5968 8.51849 49.7687C8.34658 49.9406 8.25 50.1738 8.25 50.4169C8.25 50.66 8.34658 50.8932 8.51849 51.0651C8.69039 51.237 8.92355 51.3336 9.16667 51.3336H23.8333Z" fill="url(#paint1_linear_720_3449)"/>
<path d="M45.8003 30.5139C45.1011 29.846 44.1713 29.4733 43.2043 29.4733C42.2374 29.4733 41.3076 29.846 40.6083 30.5139L38.7915 32.3308C38.7545 32.3708 38.7048 32.3969 38.6508 32.4044C38.5968 32.4119 38.5419 32.4005 38.4954 32.372C36.2596 30.7748 34.3033 28.8188 32.7058 26.5833C32.6791 26.5379 32.6685 26.4849 32.6759 26.4328C32.6832 26.3807 32.7079 26.3326 32.7461 26.2964L34.5675 24.4749C35.2547 23.7857 35.6405 22.8522 35.6405 21.8789C35.6405 20.9057 35.2547 19.9722 34.5675 19.2829L31.9422 16.6558C31.2431 15.9887 30.3139 15.6165 29.3475 15.6165C28.3812 15.6165 27.452 15.9887 26.7529 16.6558C24.2412 19.1674 23.2696 23.0944 24.1478 27.1644C24.7399 29.8888 26.2258 32.3812 28.8374 35.0221C29.6624 35.8169 29.5029 35.6729 30.0703 36.255C32.6966 38.8529 35.1899 40.3388 37.9179 40.93C41.6763 41.7358 45.7279 41.0217 48.4229 38.3239C48.7644 37.9833 49.0353 37.5787 49.2201 37.1333C49.405 36.6878 49.5001 36.2102 49.5001 35.7279C49.5001 35.2456 49.405 34.7681 49.2201 34.3226C49.0353 33.8772 48.7644 33.4725 48.4229 33.1319L45.8003 30.5139ZM47.1286 37.0333C46.2939 37.8366 45.3047 38.462 44.2211 38.8717C43.1375 39.2814 41.982 39.4667 40.8247 39.4166C36.9747 39.4166 34.089 37.6539 31.372 34.9671C30.437 34.0019 30.4792 34.0669 30.1272 33.7232C28.0871 31.864 26.6327 29.4508 25.9417 26.7785C25.1937 23.3218 25.982 20.0236 28.05 17.9547C28.2204 17.7836 28.4228 17.6477 28.6458 17.5551C28.8688 17.4624 29.1079 17.4147 29.3494 17.4147C29.5909 17.4147 29.8299 17.4624 30.0529 17.5551C30.2759 17.6477 30.4784 17.7836 30.6488 17.9547L33.275 20.5773C33.4463 20.7476 33.5822 20.9502 33.675 21.1733C33.7677 21.3963 33.8155 21.6355 33.8155 21.8771C33.8155 22.1187 33.7677 22.3579 33.675 22.581C33.5822 22.804 33.4463 23.0066 33.275 23.1769L31.4417 25.0029C31.0939 25.3468 30.8803 25.8036 30.8395 26.291C30.7987 26.7784 30.9332 27.2643 31.2189 27.6613C32.9303 30.0535 35.0239 32.1477 37.4156 33.8598C37.8134 34.1468 38.3007 34.2819 38.7895 34.2408C39.2783 34.1996 39.7362 33.9847 40.0803 33.6352L41.9045 31.8083C42.2494 31.4639 42.7169 31.2705 43.2043 31.2705C43.6917 31.2705 44.1592 31.4639 44.5042 31.8083L47.1268 34.4309C47.2986 34.6012 47.435 34.8038 47.5281 35.027C47.6213 35.2503 47.6693 35.4898 47.6695 35.7317C47.6697 35.9736 47.622 36.2132 47.5291 36.4365C47.4363 36.6599 47.3002 36.8627 47.1286 37.0333Z" fill="url(#paint2_linear_720_3449)"/>
<path d="M49.5 10.0833H23.8333C22.375 10.0847 20.9769 10.6646 19.9458 11.6958C18.9147 12.7269 18.3347 14.125 18.3333 15.5833V21.4499L8.29762 26.8023C8.00567 26.9591 7.76167 27.1921 7.59158 27.4765C7.42149 27.7609 7.33167 28.0861 7.33167 28.4175C7.33167 28.7489 7.42149 29.0741 7.59158 29.3585C7.76167 29.6429 8.00567 29.8759 8.29762 30.0327L18.3333 35.3833V41.2499C18.3347 42.7082 18.9147 44.1063 19.9458 45.1374C20.9769 46.1685 22.375 46.7485 23.8333 46.7499H49.5C50.9582 46.7485 52.3563 46.1685 53.3874 45.1374C54.4186 44.1063 54.9985 42.7082 55 41.2499V15.5833C54.9985 14.125 54.4186 12.7269 53.3874 11.6958C52.3563 10.6646 50.9582 10.0847 49.5 10.0833ZM53.1666 41.2499C53.1666 42.2224 52.7803 43.155 52.0927 43.8426C51.405 44.5303 50.4724 44.9166 49.5 44.9166H23.8333C22.8608 44.9166 21.9282 44.5303 21.2406 43.8426C20.5529 43.155 20.1666 42.2224 20.1666 41.2499V34.8333C20.1666 34.6672 20.1215 34.5043 20.0361 34.3619C19.9507 34.2195 19.8282 34.103 19.6817 34.0248L9.16662 28.4166L19.6845 22.8066C19.8301 22.7282 19.9519 22.6118 20.0368 22.4697C20.1217 22.3277 20.1665 22.1654 20.1666 21.9999V15.5833C20.1666 14.6108 20.5529 13.6782 21.2406 12.9905C21.9282 12.3029 22.8608 11.9166 23.8333 11.9166H49.5C50.4724 11.9166 51.405 12.3029 52.0927 12.9905C52.7803 13.6782 53.1666 14.6108 53.1666 15.5833V41.2499Z" fill="url(#paint3_linear_720_3449)"/>
</g>
<defs>
<linearGradient id="paint0_linear_720_3449" x1="16.5" y1="-3.57724" x2="16.5" y2="76.9106" gradientUnits="userSpaceOnUse">
<stop stop-color="#FFE600"/>
<stop offset="1" stop-color="#F23E17"/>
</linearGradient>
<linearGradient id="paint1_linear_720_3449" x1="16.5" y1="49.381" x2="16.5" y2="52.0639" gradientUnits="userSpaceOnUse">
<stop stop-color="#FFE600"/>
<stop offset="1" stop-color="#F23E17"/>
</linearGradient>
<linearGradient id="paint2_linear_720_3449" x1="36.6655" y1="13.9497" x2="36.6655" y2="51.4509" gradientUnits="userSpaceOnUse">
<stop stop-color="#FFE600"/>
<stop offset="1" stop-color="#F23E17"/>
</linearGradient>
<linearGradient id="paint3_linear_720_3449" x1="31.1658" y1="7.69843" x2="31.1658" y2="61.357" gradientUnits="userSpaceOnUse">
<stop stop-color="#FFE600"/>
<stop offset="1" stop-color="#F23E17"/>
</linearGradient>
<clipPath id="clip0_720_3449">
<rect width="55" height="55" fill="white"/>
</clipPath>
</defs>
</svg>
