<svg width="1164" height="824" viewBox="0 0 1164 824" fill="none" xmlns="http://www.w3.org/2000/svg">
<path fill-rule="evenodd" clip-rule="evenodd" d="M1164 0H0V305.978C0.00158691 303.04 0.0896606 300.135 0.265869 297.262C10.5203 130.109 122.061 79.5797 220.261 35.0938C233.698 29.0066 246.885 23.0326 259.529 16.8884C322.2 -13.5659 390.045 3.17944 459.331 20.2802C501.202 30.6146 543.599 41.0789 585.698 41.3339C627.956 41.5898 670.152 32.5115 711.868 23.5361C779.426 9.0011 845.729 -5.26379 909.011 20.8231C1023.12 67.8619 1150.39 155.886 1161.97 278.889C1173.77 404.35 1137.15 472.286 973.941 547.296C907.355 577.9 883.551 629.591 860.307 680.068C826.597 753.272 794.062 823.924 633.912 824H1164V0ZM633.454 824C366.745 823.837 0.10498 497.529 0 306.142V824H633.454Z" fill="black"/>
</svg>
